<svg version="1.1" id="Capa_1" xmlns="http://www.w3.org/2000/svg" x="0" y="0" viewBox="0 0 133.2 136.9" xml:space="preserve"><style>.st1{fill:#c3c3c3}</style><g id="Grupo_10386_1_" transform="translate(-4329.067 -3500.694)"><g id="Grupo_10384_1_"><path id="Trazado_89_3_" d="M4426.6 3531.2l-30-30h-66.4v124.1h96.3v-94.1z" fill="#eeeff2"/><path id="Trazado_90_3_" class="st1" d="M4396.6 3501.2v30h30l-30-30z"/></g><g id="Grupo_10385_1_"><path id="Trazado_91_3_" class="st1" d="M4349.5 3535.4h19.3c1.2-.1 2.1-1.2 1.9-2.3-.1-1-.9-1.8-1.9-1.9h-19.3c-1.2-.1-2.2.8-2.3 1.9s.8 2.2 1.9 2.3h.4z"/><path id="Trazado_92_3_" class="st1" d="M4385.9 3578.2h-36.4c-1.2 0-2.1 1-2.1 2.2 0 1.2 1 2.1 2.1 2.1h36.4c1.2 0 2.2-1 2.2-2.1-.1-1.3-1-2.2-2.2-2.2z"/><path id="Trazado_93_3_" class="st1" d="M4407.2 3563.3h-14.9c-1.2-.1-2.2.8-2.3 1.9-.1 1.2.8 2.2 1.9 2.3h15.3c1.2.1 2.2-.8 2.3-1.9s-.8-2.2-1.9-2.3h-.4z"/><path id="Trazado_94_3_" class="st1" d="M4349.5 3552.6h10.7c1.2-.1 2.1-1.2 1.9-2.3-.1-1-.9-1.8-1.9-1.9h-10.7c-1.2-.1-2.2.8-2.3 1.9s.8 2.2 1.9 2.3h.4z"/><path id="Trazado_95_3_" class="st1" d="M4381.6 3552.6h15c1.2-.1 2.1-1.2 1.9-2.3-.1-1-.9-1.8-1.9-1.9h-15c-1.2-.1-2.2.8-2.3 1.9-.1 1.2.8 2.2 1.9 2.3h.4z"/><path id="Trazado_96_3_" class="st1" d="M4368.8 3550.4c0 1.2.9 2.2 2.1 2.2 1.2 0 2.2-.9 2.2-2.1 0-1.2-.9-2.2-2.1-2.2-.3 0-.6 0-.9.2-.8.3-1.3 1.1-1.3 1.9z"/><path id="Trazado_97_3_" class="st1" d="M4360.2 3563.3c-1.2-.1-2.2.8-2.3 1.9s.8 2.2 1.9 2.3h21.9c1.2.1 2.2-.8 2.3-1.9.1-1.2-.8-2.2-1.9-2.3h-21.9z"/><path id="Trazado_98_3_" class="st1" d="M4349.5 3567.5c.6 0 1.1-.2 1.5-.6.8-.9.8-2.2 0-3-.9-.8-2.2-.8-3 0-.4.4-.6 1-.6 1.5 0 1.2.9 2.1 2.1 2.1z"/><path id="Trazado_99_3_" class="st1" d="M4407.2 3593.2h-14.9c-1.2-.1-2.2.8-2.3 1.9-.1 1.2.8 2.2 1.9 2.3h15.3c1.2.1 2.2-.8 2.3-1.9s-.8-2.2-1.9-2.3h-.4z"/><path id="Trazado_100_3_" class="st1" d="M4381.6 3593.2h-21.5c-1.2-.1-2.2.8-2.3 1.9-.1 1.2.8 2.2 1.9 2.3h21.9c1.2.1 2.2-.8 2.3-1.9s-.8-2.2-1.9-2.3h-.4z"/><path id="Trazado_101_3_" class="st1" d="M4348 3593.8c-.8.8-.8 2.2 0 3 .4.4 1 .6 1.5.6.6 0 1.1-.2 1.5-.6.4-.4.7-.9.7-1.5s-.2-1.1-.6-1.5c-.9-.8-2.2-.8-3.1 0z"/><path id="Trazado_102_3_" class="st1" d="M4407.2 3552.6c1.2 0 2.1-.9 2.1-2.1 0-.6-.2-1.1-.6-1.5-.8-.8-2.2-.8-3 0-.8.9-.7 2.2.2 3 .4.3.8.5 1.3.6z"/><path id="Trazado_103_3_" class="st1" d="M4398.1 3581.9c.8-.9.8-2.2 0-3-.8-.8-2.2-.8-3 0-.8.8-.8 2.2 0 3 .4.4 1 .6 1.5.6.6 0 1.1-.2 1.5-.6z"/><path id="Trazado_104_3_" class="st1" d="M4405.8 3578.9c-.9.8-1 2.2-.2 3 .8.9 2.2 1 3 .2.9-.8 1-2.2.2-3 0 0 0-.1-.1-.1-.8-.9-2.1-.9-2.9-.1z"/></g></g><path id="Trazado_145_1_" d="M127.9 89.5c-8.7-15-27.8-20.1-42.8-11.4S65 105.9 73.7 120.9c2.7 4.7 6.7 8.7 11.4 11.4 9.7 5.6 21.7 5.6 31.4 0 4.7-2.7 8.6-6.7 11.4-11.4 5.6-9.8 5.6-21.7 0-31.4z" fill="#87c0cd"/><path id="Trazado_146_1_" d="M101.7 90c-.3-.2-.6-.4-.9-.4-.3 0-.7.1-.9.4l-13 13c-.2.3-.4.6-.4 1s.1.7.4.9c.2.2.6.4.9.4h7.8v14.3c0 .4.1.7.4.9.3.2.6.4.9.4h7.8c.3 0 .7-.1.9-.4.3-.2.4-.6.4-.9v-14.3h7.8c.6 0 1-.4 1.2-1 .2-.5.1-1.1-.3-1.4l-13-12.9z" fill="#fff"/></svg>