<svg xmlns="http://www.w3.org/2000/svg" viewBox="0 0 61.24 91.72"><defs><style>.cls-1{fill:#f7323f}</style></defs><g id="Capa_2" data-name="Capa 2"><g id="home"><path class="cls-1" d="M54.51 70.48h-.09l-11.5-4.68-3.53-1.51v-6.62h1.26a3.76 3.76 0 003.67-2.91h2.18a6.27 6.27 0 006.25-6.26v-1.15h.4a5.48 5.48 0 005.45-5.46v-1.12h1.08a1.56 1.56 0 100-3.11H58.6v-1a5.42 5.42 0 00-4.3-5.33v-2.47a5.66 5.66 0 00-4.11-5.45v-1.62A21.81 21.81 0 0028.4 0 21.8 21.8 0 006.61 21.79v6.5a5.38 5.38 0 00-3.36 3.78 6.61 6.61 0 004.05 7.77 21.66 21.66 0 0011 17.64v6.81L6.8 69.2h-.09A12.19 12.19 0 000 79.14a.66.66 0 000 .14v10.89a1.56 1.56 0 001.56 1.55h58.1a1.52 1.52 0 001.56-1.47V80a.49.49 0 000-.12 11.53 11.53 0 00-6.71-9.4zm-13.19-16.6a.67.67 0 01-.67.67h-11.3a.68.68 0 01-.67-.67v-1.36a.68.68 0 01.67-.67h11.3a.68.68 0 01.67.67zm-5 5v5.48a18.92 18.92 0 01-14.87 0v-5.45a21.27 21.27 0 007.36 1.31 21.46 21.46 0 007.47-1.34zm13.91-32a2.54 2.54 0 011 2v2.39h-1zm0 7.52h3a2.36 2.36 0 012.35 2.34v5.19a2.37 2.37 0 01-2.35 2.35h-3zm-.51 13v1.1a3.16 3.16 0 01-3.14 3.15H46a23 23 0 002.63-4.3zm-2.64-16.84c-3.75-.11-14.62-1-23.35-7a59.9 59.9 0 006.36-1.21 27.57 27.57 0 0017 7.81zM9.73 21.79a18.68 18.68 0 0137.35 0v5.27a25.22 25.22 0 01-13.51-5.68 31.48 31.48 0 009.13-4.69 1.56 1.56 0 00.3-2.18 1.51 1.51 0 00-1-.61 1.55 1.55 0 00-1.2.32c-5.2 4-12.53 5.64-17.77 6.33a64.26 64.26 0 01-10.37.54A1.55 1.55 0 0011 22.55l-.44 7.09-.88-.45zm8 31.64a18.32 18.32 0 01-7.19-12.12 19.12 19.12 0 01-.18-2.62 1.56 1.56 0 00-1.29-1.54A3.52 3.52 0 016.23 33a1.89 1.89 0 010-.23 2.19 2.19 0 011.19-1.49 3.24 3.24 0 00.88.68l2.39 1.22a2 2 0 002.65-.85 1.91 1.91 0 00.21-.77L14 24.2c1.23 0 3 0 5.17-.17 6.18 5.28 13.75 7.61 19 8.64.13 0 6.23.91 8.8 1v8.68a18.25 18.25 0 01-3.65 7.58 3.74 3.74 0 00-2.75-1.2H29.35a3.79 3.79 0 00-3.78 3.78v1.36a3.77 3.77 0 001.73 3.17 18.28 18.28 0 01-9.55-3.61zm13.55 35.18H3.11v-9.25a9.09 9.09 0 015.12-7.31l12.15-5a23.44 23.44 0 003.51 1.2 44.49 44.49 0 007.19.74 23.38 23.38 0 005.19-.74 19.89 19.89 0 003.16-1.2l12.5 5c2.9 1.42 6 4.2 6.28 7.35l.24 9.21z"/><path class="cls-1" d="M19.84 33.56a1.55 1.55 0 00-1.55 1.56v3.37a1.56 1.56 0 003.11 0v-3.37a1.56 1.56 0 00-1.56-1.56zm18.98 6.49a1.56 1.56 0 001.55-1.56v-3.37a1.56 1.56 0 10-3.11 0v3.37a1.53 1.53 0 00.46 1.1 1.55 1.55 0 001.1.46z"/></g></g></svg>