<svg data-name="Layer 2" xmlns="http://www.w3.org/2000/svg" width="199.408" height="110.81"><g data-name="Layer 2"><g data-name="TITULAR"><rect data-name="Rectángulo 51" width="161.88" height="98.529" rx="3.94" fill="#eeeff2"/><rect data-name="Rectángulo 52" width="43.509" height="52.089" rx="1.48" transform="translate(6.56 8.527)" fill="#e9e9e9"/><path data-name="Trazado 127" d="M30.907 39.2v-3.038a2.181 2.181 0 00-4.344-.322.965.965 0 000 .322v2.753a13.424 13.424 0 01-3.432 8.935l-3.075 3.378a.7.7 0 001.037.93l3.075-3.359a14.819 14.819 0 003.772-9.885v-2.752a.8.8 0 011.591 0V39.2a16.392 16.392 0 01-4.254 11.011l-2.985 3.253a.679.679 0 00.465 1.18.733.733 0 00.518-.232l2.967-3.271A17.875 17.875 0 0030.907 39.2z" fill="#c3c3c3"/><path data-name="Trazado 128" d="M33.963 36.162a5.188 5.188 0 00-10.367-.406v3.235a10.368 10.368 0 01-2.682 6.965l-2.163 2.306a.7.7 0 00.983.983l2.163-2.413a11.833 11.833 0 003.039-7.865v-2.805a3.754 3.754 0 017.508 0v3.039a19.305 19.305 0 01-5.023 13l-2.4 2.806a.7.7 0 000 .983.679.679 0 00.965 0l2.52-2.771a20.682 20.682 0 005.457-13.893z" fill="#c3c3c3"/><path data-name="Trazado 129" d="M36.841 36.162a8.115 8.115 0 00-16.213-.608v3.361a7.455 7.455 0 01-1.914 4.988l-1.947 2.127a.7.7 0 000 .983.679.679 0 00.983 0l1.913-2.163a8.938 8.938 0 002.252-5.917v-2.771a6.739 6.739 0 1113.46 0v3.039a22.2 22.2 0 01-5.792 14.98l-.661.822a.7.7 0 000 .983.751.751 0 00.465.179.644.644 0 00.518-.232l.7-.751a23.542 23.542 0 006.183-15.858v-3.162z" fill="#c3c3c3"/><path data-name="Trazado 130" d="M17.661 36.162a.7.7 0 00.7.7.715.715 0 00.7-.7 9.688 9.688 0 018.294-9.581.715.715 0 00.679-.715.679.679 0 00-.715-.679h-.161a11.065 11.065 0 00-9.497 10.975z" fill="#c3c3c3"/><path data-name="Trazado 131" d="M19.091 38.914a.7.7 0 00-.679-.7.679.679 0 00-.7.7 4.487 4.487 0 01-1.126 2.985l-1.785 1.931a.679.679 0 00.465 1.18.7.7 0 00.518-.232l1.788-1.931a5.97 5.97 0 001.519-3.933z" fill="#c3c3c3"/><path data-name="Trazado 132" d="M38.433 45.1a.715.715 0 00-.84.483 23.827 23.827 0 01-.947 2.9.7.7 0 00.375.894.679.679 0 00.268 0 .715.715 0 00.644-.429 30.531 30.531 0 001-3.057.733.733 0 00-.5-.787z" fill="#c3c3c3"/><path data-name="Trazado 133" d="M36.126 27.921a.715.715 0 00-.983 0 .7.7 0 000 .983 9.724 9.724 0 013.235 7.15v3.039a28.2 28.2 0 01-.214 3.463.679.679 0 00.589.774h.107a.679.679 0 00.679-.59 27.564 27.564 0 00.25-3.575v-3.039a11.136 11.136 0 00-3.664-8.2z" fill="#c3c3c3"/><path data-name="Trazado 134" d="M32.873 27.421a.912.912 0 00.3 0 .679.679 0 00.787-.608.751.751 0 00-.393-.644 10.421 10.421 0 00-3.178-.968.7.7 0 00-.787.572.7.7 0 00.59.787 8.634 8.634 0 012.681.858z" fill="#c3c3c3"/><path data-name="Trazado 135" d="M28.744 22.13h-.787a.733.733 0 10.107 1.448h.7a12.638 12.638 0 0112.62 12.513v3.038a.679.679 0 00.7.7.7.7 0 00.7-.7V36.09a14.05 14.05 0 00-14.04-13.96z" fill="#c3c3c3"/><path data-name="Trazado 136" d="M21.147 25.883a.679.679 0 00.393-.125 13.067 13.067 0 013.771-1.787.7.7 0 00-.375-1.323 13.728 13.728 0 00-4.2 1.984.679.679 0 00-.143.965.661.661 0 00.554.286z" fill="#c3c3c3"/><path data-name="Trazado 137" d="M16.088 38.915v-2.753a12.62 12.62 0 013.449-8.669.702.702 0 10-.965-1.019 13.943 13.943 0 00-3.825 9.617v2.753a1.555 1.555 0 01-.39 1.018l-.858.947a.7.7 0 000 .983.787.787 0 00.465.179.7.7 0 00.518-.232l.858-.965a2.9 2.9 0 00.751-1.859z" fill="#c3c3c3"/><path data-name="Trazado 138" d="M44.903 30.746a16.785 16.785 0 00-3.664-6.042.679.679 0 00-.965 0 .679.679 0 000 .965 15.945 15.945 0 013.361 5.613.7.7 0 00.661.483h.215a.679.679 0 00.447-.876.232.232 0 00-.054-.143z" fill="#c3c3c3"/><path data-name="Trazado 139" d="M34.232 20.074a.7.7 0 00-.465 1.3 15.283 15.283 0 014.272 2.262.733.733 0 00.429.143.7.7 0 00.411-1.251 16.552 16.552 0 00-4.648-2.449z" fill="#c3c3c3"/><path data-name="Trazado 140" d="M17.965 24.882a15.605 15.605 0 0110.725-4.344 13.3 13.3 0 012.234.179.7.7 0 00.787-.59.661.661 0 00-.572-.769 18.572 18.572 0 00-2.449-.161 17 17 0 00-16.982 16.231.679.679 0 00.661.716h.143a.7.7 0 00.7-.661 15.462 15.462 0 014.755-10.6z" fill="#c3c3c3"/><path data-name="Trazado 141" d="M28.743 16.195a20.08 20.08 0 00-4.615.537.7.7 0 10.325 1.358 18.447 18.447 0 0117.661 5.145.712.712 0 001 .018.679.679 0 000-.965 19.877 19.877 0 00-14.372-6.1z" fill="#c3c3c3"/><path data-name="Trazado 142" d="M13.12 24.846a.787.787 0 00.447.143.733.733 0 00.536-.25 18.626 18.626 0 017.543-5.738.733.733 0 00.375-.912.715.715 0 00-.912-.393 20.4 20.4 0 00-8.1 6.167.715.715 0 00.111.983z" fill="#c3c3c3"/><path data-name="Trazado 143" d="M19.091 16.839a.626.626 0 00.3 0 21.111 21.111 0 0114.305-1.572.715.715 0 00.894-.429.7.7 0 00-.447-.894h-.125a23.363 23.363 0 00-5.363-.626 22.594 22.594 0 00-9.957 2.249.7.7 0 00-.3.93.679.679 0 00.7.34z" fill="#c3c3c3"/><path data-name="Trazado 144" d="M36.68 16.088a27 27 0 012.109.983.661.661 0 00.322 0 .7.7 0 00.608-.375.679.679 0 00-.286-.93 28.136 28.136 0 00-2.235-1.054.7.7 0 00-.912.393.679.679 0 00.393.983z" fill="#c3c3c3"/><path data-name="Rectángulo 53" fill="none" stroke="#c3c3c3" stroke-miterlimit="10" stroke-width=".62" d="M54.216 12.262h25.312v23.166H54.216z"/><path data-name="Rectángulo 54" fill="none" stroke="#c3c3c3" stroke-miterlimit="10" stroke-width=".62" d="M79.528 12.262h25.312v23.166H79.528z"/><path data-name="Rectángulo 55" fill="none" stroke="#c3c3c3" stroke-miterlimit="10" stroke-width=".62" d="M104.839 12.262h25.312v23.166h-25.312z"/><path data-name="Rectángulo 56" fill="none" stroke="#c3c3c3" stroke-miterlimit="10" stroke-width=".62" d="M130.151 12.262h25.312v23.166h-25.312z"/><path data-name="Rectángulo 57" fill="none" stroke="#c3c3c3" stroke-miterlimit="10" stroke-width=".62" d="M54.216 35.34h25.312v23.166H54.216z"/><path data-name="Rectángulo 58" fill="none" stroke="#c3c3c3" stroke-miterlimit="10" stroke-width=".62" d="M79.528 35.34h25.312v23.166H79.528z"/><path data-name="Rectángulo 59" fill="none" stroke="#c3c3c3" stroke-miterlimit="10" stroke-width=".62" d="M104.839 35.34h25.312v23.166h-25.312z"/><path data-name="Rectángulo 60" fill="none" stroke="#c3c3c3" stroke-miterlimit="10" stroke-width=".62" d="M130.151 35.34h25.312v23.166h-25.312z"/><path data-name="Rectángulo 61" fill="#c3c3c3" d="M7.847 70.608H155.48v1.09H7.847z"/><path data-name="Rectángulo 62" fill="#c3c3c3" d="M7.847 78.455H155.48v1.09H7.847z"/><path data-name="Rectángulo 63" fill="#c3c3c3" d="M7.847 86.32H155.48v1.09H7.847z"/></g></g><path data-name="Trazado 145" d="M195.235 63.833a31.313 31.313 0 10-42.793 42.793 31.568 31.568 0 0031.407 0 31.139 31.139 0 0011.369-11.387 31.514 31.514 0 000-31.407z" fill="#87c0cd"/><path data-name="Trazado 146" d="M169.083 64.351a1.484 1.484 0 00-.947-.375 1.412 1.412 0 00-.93.375l-13 13a1.519 1.519 0 00-.411.965 1.269 1.269 0 00.375.947 1.287 1.287 0 00.93.358h7.829v14.3a1.251 1.251 0 00.357.947 1.3 1.3 0 00.93.358h7.829a1.287 1.287 0 00.93-.358 1.269 1.269 0 00.375-.947v-14.3h7.812a1.216 1.216 0 001.162-.965 1.233 1.233 0 00-.286-1.43z" fill="#fff"/></svg>