<svg data-name="Layer 2" xmlns="http://www.w3.org/2000/svg" width="199.417" height="111.167"><defs><clipPath id="a"><rect data-name="Rectángulo 19" width="47.924" height="57.362" rx="1.63" fill="none"/></clipPath></defs><rect data-name="Rectángulo 14" width="161.88" height="98.529" rx="3.94" fill="#eeeff2"/><rect data-name="Rectángulo 15" width="70.215" height="7.508" rx="2.1" transform="translate(75.112 24.042)" fill="#c3c3c3"/><rect data-name="Rectángulo 16" width="70.215" height="7.508" rx="2.1" transform="translate(75.112 41.757)" fill="#c3c3c3"/><rect data-name="Rectángulo 17" width="41.239" height="7.508" rx="1.61" transform="translate(75.112 57.523)" fill="#c3c3c3"/><rect data-name="Rectángulo 18" width="47.924" height="57.362" rx="1.63" transform="translate(14.39 20.95)" fill="#c3c3c3"/><g data-name="Grupo 40" transform="translate(14.39 20.95)" clip-path="url(#a)" fill="#eeeff2"><path data-name="Trazado 63" d="M39.808 48.335l-8.312-4.254a1.662 1.662 0 01-.93-1.5v-2.54a13.925 13.925 0 007.9-9.867 4.433 4.433 0 003.128-4.2v-2.236a4.415 4.415 0 00-2.36-3.861C38.269 11.583 32.781 8.24 23.968 8.24h-1.213a13.192 13.192 0 01-8.544-1.966 10.725 10.725 0 01-2.52-2.2.447.447 0 00-.787.322 14.944 14.944 0 00.411 2.663c.733 3.575.3 3.11-1.108 6.578a22.416 22.416 0 00-1.537 6.274 4.4 4.4 0 00-2.36 3.825v2.2a4.433 4.433 0 003.128 4.2 14.014 14.014 0 007.901 9.87v2.52a1.68 1.68 0 01-.947 1.519l-8.509 4.2a7.15 7.15 0 00-3.772 6.346v2.915c0 2.5 8.938 3.718 19.842 3.718s19.841-1.218 19.841-3.718v-2.7a7.15 7.15 0 00-3.986-6.471z"/><path data-name="Trazado 64" d="M204.548-9.027a2.109 2.109 0 10-2.109-2.11 2.109 2.109 0 002.109 2.11z"/><path data-name="Trazado 65" d="M204.548-9.027a2.109 2.109 0 10-2.109-2.11 2.109 2.109 0 002.109 2.11z"/><path data-name="Trazado 66" d="M107.896-8.705a2.109 2.109 0 10-2.109-2.109 2.109 2.109 0 002.109 2.109z"/></g><path data-name="Rectángulo 20" fill="#c3c3c3" d="M75.112 86.123h35.304v2.181H75.112z"/><path data-name="Rectángulo 21" fill="#c3c3c3" d="M113.705 86.123h15.659v2.181h-15.659z"/><path data-name="Trazado 67" d="M195.218 64.191a31.067 31.067 0 00-11.387-11.387 31.425 31.425 0 00-31.389 0 31.067 31.067 0 00-11.387 11.387 31.461 31.461 0 000 31.407 31.067 31.067 0 0011.387 11.387 31.532 31.532 0 0031.389 0 31.067 31.067 0 0011.387-11.387 31.461 31.461 0 000-31.407z" fill="#87c0cd"/><path data-name="Trazado 68" d="M169.065 64.619a1.341 1.341 0 00-1.788 0l-13 13a1.43 1.43 0 00-.549 1.033 1.323 1.323 0 00.357.947 1.287 1.287 0 00.947.358h7.812v14.3a1.269 1.269 0 00.375.947 1.287 1.287 0 00.93.358h7.829a1.3 1.3 0 00.93-.358 1.269 1.269 0 00.375-.947v-14.3h7.812a1.2 1.2 0 001.216-.8 1.233 1.233 0 00-.268-1.43z" fill="#fff"/></svg>