<svg version="1.1" id="Capa_1" xmlns="http://www.w3.org/2000/svg" x="0" y="0" viewBox="0 0 512 448" xml:space="preserve"><style>.st0{fill:#c9dae1}</style><path class="st0" d="M506.2 333.6c-4.1-10.3-15.7-15.3-26-11.2s-15.3 15.7-11.2 26c5.2 13 3.5 27.9-4.6 39.8-8.1 11.9-21 18.7-35.4 18.7H83.1c-15.8 0-29.8-8.2-37.5-22-7.7-13.8-7.3-30.1 1-43.5l173-280.1C227.4 48.6 241.1 41 256 41c15 0 28.6 7.6 36.5 20.4l127.9 207.1c5.8 9.4 18.1 12.3 27.5 6.5 9.4-5.8 12.3-18.1 6.5-27.5L326.6 40.3C311.3 15.7 285 1 256 1s-55.3 14.7-70.5 39.3l-173 280.1c-16 26-16.7 57.4-1.9 84 14.9 26.7 42 42.6 72.5 42.6H429c27.9 0 52.9-13.2 68.6-36.3 15.5-22.9 18.7-51.8 8.6-77.1z"/><path class="st0" d="M256 368c11 0 20-9 20-20s-9-20-20-20-20 9-20 20 9 20 20 20zm20-90V131c0-11-9-20-20-20s-20 9-20 20v147c0 11 9 20 20 20 11.1 0 20-9 20-20z"/></svg>