<svg xmlns="http://www.w3.org/2000/svg" viewBox="0 0 67.76 90.36"><defs><style>.cls-1{fill:#f7323f}</style></defs><g id="Capa_2" data-name="Capa 2"><g id="home"><path class="cls-1" d="M52.6 29H15.16a2.12 2.12 0 100 4.23H52.6a2.12 2.12 0 100-4.23zm0 12.71H15.16a2.12 2.12 0 000 4.24H52.6a2.12 2.12 0 000-4.24z"/><path class="cls-1" d="M67.75 18.26a2.09 2.09 0 00-.61-1.44L51 .63A2.12 2.12 0 0049.45 0h-45A4.46 4.46 0 000 4.46v52.88A3.17 3.17 0 001.5 60l7.3 4.53a7.34 7.34 0 007.81 0l5-3.11a3.16 3.16 0 013.35 0l5 3.11a7.37 7.37 0 007.81 0l5-3.11a3.16 3.16 0 013.35 0l5 3.11a7.34 7.34 0 007.81 0L66.26 60a3.17 3.17 0 001.5-2.61v-39a.07.07 0 00-.01-.13zm-16.19-11l9 9h-8.77a.23.23 0 01-.23-.23V7.22zm12 49.45l-6.8 4.22a3.16 3.16 0 01-3.35 0l-5-3.11a7.34 7.34 0 00-7.81 0l-5 3.11a3.15 3.15 0 01-3.34 0l-5-3.11a7.34 7.34 0 00-7.81 0l-5 3.11a3.16 3.16 0 01-3.35 0l-6.8-4.22V4.46a.23.23 0 01.23-.23h42.8V16a4.46 4.46 0 004.46 4.46h11.74zm4.2 13.17a3.17 3.17 0 00-4.85-2.7L56.66 71a3 3 0 01-3.21 0l-5.15-3.16a7.22 7.22 0 00-7.67 0L35.48 71a3 3 0 01-3.2 0l-5.16-3.19a7.2 7.2 0 00-7.66 0L14.31 71a3 3 0 01-3.21 0l-6.25-3.85A3.17 3.17 0 000 69.85v16a4.46 4.46 0 004.46 4.45H63.3a4.46 4.46 0 004.46-4.45zM63.3 86.13H4.46a.22.22 0 01-.23-.22V71.75l4.64 2.88a7.22 7.22 0 007.67 0l5.15-3.2a3 3 0 013.2 0l5.16 3.2a7.22 7.22 0 007.66 0l5.16-3.2a3 3 0 013.2 0l5.15 3.2a7.22 7.22 0 007.67 0l4.64-2.88v14.16a.22.22 0 01-.23.22z"/></g></g></svg>