<svg xmlns="http://www.w3.org/2000/svg" viewBox="0 0 120.9 87.92"><defs><style>.cls-1{fill:#f7323f;stroke:#fff;stroke-miterlimit:10}</style></defs><g id="Capa_2" data-name="Capa 2"><g id="home"><path class="cls-1" d="M32.31 16.88H19.13a2.9 2.9 0 010-5.8h13.18a2.9 2.9 0 110 5.8zm0 60.39H19.13a2.91 2.91 0 010-5.81h13.18a2.91 2.91 0 110 5.81zM27.48 32h-17a2.91 2.91 0 010-5.81h17a2.91 2.91 0 010 5.81zm0 30.45h-17a2.9 2.9 0 110-5.8h17a2.9 2.9 0 010 5.8zm-3.32-14.81H3.4a2.91 2.91 0 010-5.81h20.76a2.91 2.91 0 110 5.81zM76.94.5a43.38 43.38 0 00-30.88 12.91l-.15.13c-.08.08-.14.17-.21.25a43.35 43.35 0 000 60.34c.07.08.13.17.21.25l.15.13A43.45 43.45 0 1076.94.5zm28.2 68.08l-3.67-3.66a3 3 0 10-4.24 4.24l3.62 3.62a37.32 37.32 0 01-20.91 8.51v-10.4a3 3 0 10-6 0v10.4a37.31 37.31 0 01-21.59-9.11l3-3a3 3 0 10-4.24-4.24l-3 3A37.31 37.31 0 0139.61 47h12a3 3 0 000-6h-12a37.25 37.25 0 018.54-21l3 3a3 3 0 104.24-4.24l-3-3a37.31 37.31 0 0121.55-9.13v10.21a3 3 0 106 0V6.63a37.26 37.26 0 0120.91 8.52l-3.62 3.61a3 3 0 002.12 5.12 3 3 0 002.12-.88l3.67-3.66A37.33 37.33 0 01114.27 41h-10.36a3 3 0 000 6h10.36a37.33 37.33 0 01-9.13 21.58z"/><path class="cls-1" d="M76.94 28.08a3 3 0 00-3 3V41h-5.31a3 3 0 000 6h11.31V31.08a3 3 0 00-3-3z"/></g></g></svg>