<svg xmlns="http://www.w3.org/2000/svg" viewBox="0 0 113.62 96.25"><defs><style>.icon-user-tuerca{fill:#f7323f}</style></defs><g id="Capa_2" data-name="Capa 2"><g id="home"><path class="icon-user-tuerca" d="M44.53 0a23.86 23.86 0 1023.86 23.85A23.88 23.88 0 0044.53 0zm0 43.41a19.56 19.56 0 1119.55-19.56 19.57 19.57 0 01-19.55 19.56zm39.21 10.38a12.56 12.56 0 1012.55 12.56 12.58 12.58 0 00-12.55-12.56zm9.37 12.56A9.38 9.38 0 1183.74 57a9.38 9.38 0 019.37 9.35z"/><path class="icon-user-tuerca" d="M110.08 59.57l-3.71-.63A23.28 23.28 0 00105 55.6l2.19-3.06a4.24 4.24 0 00-.46-5.5l-3.64-3.64a4.34 4.34 0 00-5.49-.46l-3.07 2.19A22.73 22.73 0 0091 43.69L90.4 40a4.26 4.26 0 00-4.21-3.56h-5.14A4.27 4.27 0 0076.83 40l-.64 3.76a22.62 22.62 0 00-3.33 1.41l-3-2.18a4.31 4.31 0 00-5.5.45l-3.65 3.65A4.2 4.2 0 0059.44 50H26.26c-.86 0-8.54.58-16.15 7.36C-.28 66.63 0 79.76 0 79.89a2.89 2.89 0 002.9 2.82h56.72a4.23 4.23 0 001.24 3.05l3.64 3.64a4.34 4.34 0 005.48.46l3.11-2.21A24.14 24.14 0 0076.31 89l.62 3.71a4.27 4.27 0 004.22 3.57h5.15a4.25 4.25 0 004.21-3.57l.63-3.71a24 24 0 003.35-1.38l3.05 2.18a4.36 4.36 0 005.5-.46l3.64-3.64a4.24 4.24 0 00.46-5.5L105 77.1a23.66 23.66 0 001.39-3.34l3.7-.62a4.26 4.26 0 003.57-4.21V63.8a4.21 4.21 0 00-3.58-4.23zM4.86 78.41a.51.51 0 01-.5-.55 27 27 0 018.58-17.28c5.27-4.7 10.89-6.15 13.39-6.27h35.09l1 1.41a23 23 0 00-1.37 3.36l-3.65.61a4.27 4.27 0 00-3.57 4.22v5.14a4.26 4.26 0 003.56 4.21l3.76.65a22.62 22.62 0 001.41 3.33l-.84 1.17zM110 68.93a.2.2 0 010 .11.62.62 0 01-.51.51l-5.13.85a1.35 1.35 0 00-1.07 1 19.7 19.7 0 01-2.16 5.2 1.33 1.33 0 00.06 1.46l3 4.25a.65.65 0 01-.07.81l-3.64 3.64a.64.64 0 01-.82.07l-4.23-3a1.33 1.33 0 00-1.43-.09 20.19 20.19 0 01-5.2 2.16 1.28 1.28 0 00-1 1.06l-.87 5.14a.62.62 0 01-.62.52h-5.15a.62.62 0 01-.62-.53L79.68 87a1.32 1.32 0 00-1-1.07 20.87 20.87 0 01-5.08-2.09 1.4 1.4 0 00-1.45.07l-4.28 3a.64.64 0 01-.36.12.6.6 0 01-.45-.19l-3.64-3.64a.59.59 0 01-.17-.5.62.62 0 01.09-.29l2.86-4 .15-.22a1.35 1.35 0 00.06-1.47 19.81 19.81 0 01-2.18-5.19 1.37 1.37 0 00-1.07-1L58 69.67a.62.62 0 01-.52-.62v-5.14a.62.62 0 01.53-.62l5.09-.86a1.34 1.34 0 001.08-1 19.87 19.87 0 012.12-5.21 1.33 1.33 0 000-1.36l-.05-.09-3-4.27a.66.66 0 01-.1-.47.58.58 0 01.17-.34l3.64-3.64a.64.64 0 01.82-.07l4.2 3a1.37 1.37 0 001.48.06 19.41 19.41 0 015.18-2.18 1.36 1.36 0 001-1.08l.88-5.16a.63.63 0 01.62-.53h5.14a.64.64 0 01.63.53l.85 5.09a1.36 1.36 0 001 1.09A19.81 19.81 0 0194 49a1.35 1.35 0 001.47-.06l4.21-3a.73.73 0 01.36-.12.66.66 0 01.45.19l3.64 3.64a.65.65 0 01.08.8l-3 4.25a1.33 1.33 0 00-.06 1.46 19.7 19.7 0 012.16 5.2 1.32 1.32 0 001.07 1l5.13.87a.62.62 0 01.53.62z"/></g></g></svg>