<svg xmlns="http://www.w3.org/2000/svg" version="1.1" id="Capa_1" x="0" y="0" xml:space="preserve" width="117.4" height="187"><style type="text/css" id="style139">.st0{fill:#070308}</style><g id="g145" transform="translate(-147 -114.2)"><path class="st0" d="M243.3 166.7h-75.2s7.7 18.3 37.6 29.1c29.8-10.8 37.6-29.1 37.6-29.1z" id="path141" fill="#070308"/><path class="st0" d="M255.2 293.5h-2.3v-42.2c-.3-11.1-4.9-19.9-13.8-26.8-4-3-8.1-5.8-12.3-8.5-3.3-2.1-6.9-3.9-10.3-5.9-1.3-.8-2.4-1.8-4.8-3.5 5.6-3.2 10-5.4 14.2-8.1 5.1-3.3 10.2-6.6 14.9-10.3 7.7-6.1 11.8-13.9 12.4-23.5.1-1.4.1-2.9 0-4.4v-29.4c.2-1.9-.1-3.9.1-5.8h6.2l1.5-4.2 2.3-6.7h-115l2.3 6.7 1.5 4.2h6.2c.2 2-.1 3.9.1 5.8v29.4c-.1 1.5-.1 3 0 4.4.6 9.6 4.7 17.4 12.4 23.5 4.7 3.8 9.8 7.1 14.9 10.3 4.2 2.7 8.6 4.9 14.2 8.1-2.4 1.8-3.6 2.8-4.8 3.5-3.4 2-6.9 3.8-10.3 5.9-4.2 2.7-8.4 5.5-12.3 8.5-8.9 6.9-13.6 15.8-13.8 26.8v42.2H147l.9 1.6 3.3 6v.1h109v-.1l3.3-6 .9-1.6zm-78.2-109c-1-.8-2-1.7-3-2.6-5.2-4.7-8.2-10.3-8.6-17.2V125H246v39.6c-.4 6.9-3.4 12.5-8.6 17.2-1 .9-2 1.7-3 2.6-5.4 4.4-19.9 12.8-28.7 16.8-8.9-3.9-23.3-12.3-28.7-16.7zm68.7 84.5c0 2.6-.3 4.6-2.3 5.4-2.2.6-2.8.6-7-2.3-6.2-4.2-13.8-3.7-20.1 0-3 1.5-3.7 2.5-5.5 2.5-.3-.1-.6-.2-.9-.2-1.2-.6-1.8-2.6-1.8-6.1v-48.6c0-1.3-1-2.3-2.3-2.3h-.2c-1.3 0-2.3 1-2.3 2.3v48.6c0 3.6-.6 5.5-1.8 6.1-.3.1-.6.2-.9.2-1.7 0-2.5-1-5.5-2.5-6.3-3.7-13.9-4.3-20.1 0-4.2 2.9-4.8 2.9-7 2.3-1.9-.8-2.2-2.9-2.3-5.4 0-6.1-.1-12-.1-17.8-.1-7.3 2.7-13.3 7.9-18.3 1.9-1.8 3.9-3.6 6-5.1 8.3-6.2 17.6-10.7 26.2-15.7 8.6 5 17.9 9.5 26.2 15.7 2.1 1.6 4.1 3.3 6 5.1 5.2 4.9 8 11 7.9 18.3-.1 5.8-.1 11.7-.1 17.8z" id="path143" fill="#070308"/></g></svg>