<svg xmlns="http://www.w3.org/2000/svg" viewBox="0 0 100 100"><path d="M88 50c0-5.9 3.6-10.5 9-13.7-1-3.3-2.3-6.4-3.9-9.4-6.1 1.7-11-.7-15.1-4.9-4.1-4.1-5.4-9.1-3.8-15.2-3-1.5-6.1-2.8-9.4-3.8-3.2 5.4-8.9 9-14.8 9S38.4 8.4 35.2 3c-3.3 1-6.4 2.3-9.4 3.9 1.6 6.1.3 11-3.8 15.2-4.1 4.1-9 6.5-15.1 4.9C5.3 29.9 4 33.1 3 36.3c5.4 3.2 9 7.8 9 13.7S8.4 61.6 3 64.8c1 3.3 2.3 6.4 3.9 9.4 6.1-1.6 11-.3 15.2 3.8 4.1 4.1 5.4 9.1 3.8 15.2 2.9 1.6 6.1 2.9 9.4 3.9 3.2-5.4 8.9-9 14.8-9s11.6 3.6 14.8 9c3.3-1 6.4-2.3 9.4-3.9C72.5 87 73.8 82.1 78 78c4.1-4.1 9.1-6.5 15.2-4.9 1.6-3 2.9-6.1 3.9-9.4C91.6 60.5 88 55.9 88 50zM50 70.4c-11.3 0-20.4-9.2-20.4-20.4S38.7 29.6 50 29.6 70.4 38.7 70.4 50 61.3 70.4 50 70.4z" fill="#0a060c"/></svg>