<svg xmlns="http://www.w3.org/2000/svg" width="39.71" height="68.71"><path d="M31.659 64.723q-.711 3.555-5.114 3.987-1.424 0-2.846-.087l-1.156-.26-.042-.09.623-1.039a20.074 20.074 0 012.044-1.907 5.9 5.9 0 013.691-1.516 4.61 4.61 0 011.423.216 5.726 5.726 0 011.379.695zM9.161 58.398l1.067-.693a8.832 8.832 0 012.622-1.039 8.277 8.277 0 012.135-.345 4.982 4.982 0 014.223 2.165 5.124 5.124 0 01-4.18 2.123 8.086 8.086 0 01-2.265-.39 11.859 11.859 0 01-2.535-1.126l-1.067-.607zm-.4-7.45l.755-.044a4.821 4.821 0 014.89 3.162 4.771 4.771 0 01-3.244 1.388 5.75 5.75 0 01-1.556-.26 8.769 8.769 0 01-1.692-.695 9.52 9.52 0 01-2.221-1.645l-1.067-.867v-.086l1.244-.52a18.23 18.23 0 012.89-.433zm-7.07-5.806l.044-.086 1.246-.26a12.9 12.9 0 011.467-.087 10.459 10.459 0 011.377.088q4.39.528 5.114 3.942a5.468 5.468 0 01-2.89.865 6.216 6.216 0 01-3.78-1.431q-.958-1.014-1.868-2.077l-.713-.954zm28.1 10.572a8.667 8.667 0 011.69 1.991q2.152 3.423-.178 5.98-3.473-1.219-3.29-5.155a7.737 7.737 0 01.444-2.513l.447-1.169h.086l.8.866zm-4.98 6.5a4.739 4.739 0 01-4.757 2.946l-.979-.087a8.02 8.02 0 01-1.422-.216 9.528 9.528 0 01-1.467-.477l-1.111-.348-.047-.086.89-.95q1.172-.824 2.4-1.562a7.38 7.38 0 012.98-.737 4.9 4.9 0 013.513 1.515zm-.445-9.79l.713.865a7.122 7.122 0 011.245 2.384q1.347 3.749-1.424 5.762-3.03-1.749-2.133-5.589a8.645 8.645 0 01.979-2.382l.532-1.04h.088zm-4.533-2.427a5.563 5.563 0 01.888-.866l.09.043.355 1.125a8.5 8.5 0 01.535 1.214 7.078 7.078 0 01.268 1.21q.636 3.93-2.49 5.5h-.09q-2.595-2.381-.89-5.978a23.978 23.978 0 011.337-2.253zm-1.246-1q-.187 3.93-3.6 4.9h-.046q-2.154-2.646.178-5.892a9.525 9.525 0 011.289-1.474 8.178 8.178 0 011.467-1.124l.089.042.266 1.04a9.5 9.5 0 01.357 2.513zm-2.624-7.843l.046.044.088 1.126a16.105 16.105 0 01-.179 2.514q-.9 3.759-4.311 4.115h-.047q-1.615-2.992 1.158-5.718a10.15 10.15 0 011.556-1.258 8.283 8.283 0 011.689-.823zm-1.112-4.721l-.71 3.725q-1.434 3.36-4.582 3.381l-.443-.043q-1.131-3.365 2.18-5.547a12.687 12.687 0 013.511-1.558zM.624 38.99L.09 37.95l.044-.087h1.247a10.247 10.247 0 012.846.52q4.211 1.221 4.313 4.9a5.083 5.083 0 01-1.912.39 5.855 5.855 0 01-4.4-2.253 10.752 10.752 0 01-1.6-2.425zm2.046-7.67q.735.252 1.42.564 3.754 1.833 3.111 5.416a4.952 4.952 0 01-1.2.173 5.418 5.418 0 01-4.759-2.99 17.158 17.158 0 01-.977-2.556l-.264-1.299.047-.044 1.154.347c.5.106.991.238 1.469.39zm-1.512-7.883l.086-.043 1.247.519a22.794 22.794 0 012.49 1.388q3.4 2.526 2.045 6.02h-.043q-3.78 0-5.2-3.9a9.93 9.93 0 01-.357-1.341 12.055 12.055 0 01-.179-1.43l-.086-1.213zm13.515 8.23a9.082 9.082 0 01-.533 1.735 10.727 10.727 0 01-.89 1.69 4.68 4.68 0 01-4.134 2.681 5.407 5.407 0 01-1.333-.173q-.417-3.375 3.156-5.025a10.75 10.75 0 011.78-.651 11.431 11.431 0 011.91-.3l.044.042zm-1.29-4.894a10.774 10.774 0 011.736-.13l.488.042.045.088a10.162 10.162 0 01-.888 1.688 12.5 12.5 0 01-1.245 1.6 5.342 5.342 0 01-4 1.992 5.585 5.585 0 01-1.824-.348q.235-3.551 4.092-4.5a9.745 9.745 0 011.6-.433zm1.558-1.82a5.686 5.686 0 01-3.513 1.43 4.7 4.7 0 01-2.446-.737q.621-3.467 4.58-3.9l1.023-.044 2.891.216.043.087a10.343 10.343 0 01-1.111 1.56 11.81 11.81 0 01-1.467 1.388zm-7.647-5.98q2.772 3.075.8 6.328-3.732-.608-4.268-4.9a12.3 12.3 0 01-.132-1.3c-.009-.457.007-.918.044-1.386l.263-1.21.087-.044.981.695a11.14 11.14 0 012.225 1.817zM8.36 10.05l.98.867a12.318 12.318 0 011.686 2.251q2.064 3.682-.266 6.327a4.972 4.972 0 01-3.379-5.5 11.579 11.579 0 01.179-1.3c.088-.466.208-.957.354-1.473l.357-1.126.09-.044zm4.758-3.813a11.721 11.721 0 011.022-1.731h.09l.71.952a11.647 11.647 0 011.335 2.555q1.349 4.013-1.69 6.2-3.207-2.007-2.133-6.107a11.619 11.619 0 01.666-1.864zm5.957 12.867a18.2 18.2 0 01-1.556 1.17 7 7 0 01-3.023.779 4.871 4.871 0 01-3.2-1.212 4.406 4.406 0 014.535-2.9l.755.042a12.926 12.926 0 012 .217 11.458 11.458 0 011.868.563v.086a15.858 15.858 0 01-1.38 1.257zm5.38-4.9a10.519 10.519 0 01-1.6 1.085 11.54 11.54 0 01-1.825.737 7.23 7.23 0 01-2.31.431 4.513 4.513 0 01-3.692-1.82 4.391 4.391 0 014-2.338 7.916 7.916 0 011.822.26 13.373 13.373 0 011.914.65 11.733 11.733 0 011.688.91zm1.69-5.284a10.06 10.06 0 011.735.823 9.846 9.846 0 011.556 1.17v.088a10.74 10.74 0 01-1.78.777 9.742 9.742 0 01-1.822.435 8.458 8.458 0 01-1.422.128 4.5 4.5 0 01-4.311-2.468 4.494 4.494 0 013.379-1.6 5.348 5.348 0 011.29.131 7.74 7.74 0 011.377.52zM21.521 0h.088a11 11 0 01.8 1.818 10 10 0 01.445 1.863q.459 4.185-2.936 5.762h-.087q-2.688-2.552-.711-6.237A12.693 12.693 0 0121.52 0zm11.16 2.339l.046.086a12.935 12.935 0 01-1.026 1.69 15.548 15.548 0 01-1.38 1.6 6.134 6.134 0 01-4.22 2.04 5.409 5.409 0 01-2.268-.565q.354-3.634 4.581-4.68a13.542 13.542 0 012.668-.3 13.118 13.118 0 011.6.13zm6.226 65.728a.782.782 0 01-.294-.056l-6.048-2.338a.785.785 0 01-.453-1.022.81.81 0 011.04-.445l6.049 2.34a.785.785 0 01.453 1.027.8.8 0 01-.747.5" fill="#3c485c"/></svg>