<svg version="1.1" id="LOGO" xmlns="http://www.w3.org/2000/svg" x="0" y="0" viewBox="0 0 633 402" xml:space="preserve"><style>.st0{fill:#093d16}</style><path d="M304.88 191.71h-25.05v16.19h28v12.61h-43.39v-68.07h41.94v12.61h-26.54v14.18h25.05v12.48zm12.29 28.8v-38.1h-6.54v-11.34h6.54v-1.88c0-5.94 1.82-12.49 6.21-16.57 3.9-3.65 9.17-4.94 13.68-4.94 3.37 0 6.01.45 8.14 1.05l-.62 11.79c-1.34-.41-2.91-.71-4.97-.71-5.05 0-7.18 3.97-7.18 8.75v2.51h9.89v11.34h-9.77v38.1h-15.38zm42.08-19.78c.46 6.38 6.76 9.41 13.93 9.41 5.2 0 9.46-.7 13.6-2.1l2.07 10.4c-5.11 2.09-11.28 3.13-17.91 3.13-16.75 0-26.36-9.75-26.36-25.16 0-12.56 7.83-26.45 24.92-26.45 16.02 0 22.07 12.45 22.07 24.68 0 2.68-.28 4.95-.55 6.08h-31.77zm18.04-10.53c.03-3.7-1.63-10.02-8.62-10.02-6.49 0-9.12 5.93-9.55 10.02h18.17zm58.12 29.07c-2.77 1.28-7.92 2.3-13.77 2.3-15.97 0-26.15-9.78-26.15-25.3 0-14.45 9.89-26.26 28.26-26.26 4.07 0 8.52.74 11.73 1.95l-2.39 11.42c-1.86-.83-4.55-1.57-8.6-1.57-8.13 0-13.34 5.77-13.28 13.85 0 9.08 6.09 13.89 13.53 13.89 3.67 0 6.49-.65 8.85-1.61l1.82 11.33zm23.17-62.3v14.1h11.06v11.34h-11.06v17.91c0 5.96 1.48 8.71 6.06 8.71 1.98 0 3.51-.21 4.57-.46l.12 11.68c-1.98.72-5.65 1.32-9.96 1.32-4.97 0-9.11-1.73-11.58-4.29-2.85-2.93-4.25-7.63-4.25-14.65v-20.22h-6.57v-11.34h6.57v-10.62l15.04-3.48zm33.33.38c.02 4.28-3.14 7.68-8.26 7.68-4.86 0-8.02-3.4-8-7.68-.02-4.39 3.21-7.7 8.14-7.7 4.96 0 8.06 3.29 8.12 7.7zm-15.83 63.16v-49.43h15.39v49.43h-15.39zm36.71-49.44l6.65 22.99c1.2 4.17 2.06 8.07 2.83 12.02h.33c.76-4.08 1.61-7.77 2.73-12.02l6.34-22.99h16.16l-18.41 49.43H514.1l-17.97-49.43h16.66zm88.4 24.22c0 18.06-12.8 26.32-26.05 26.32-14.38 0-25.52-9.51-25.52-25.47 0-15.95 10.52-26.19 26.41-26.19 15.11.01 25.16 10.42 25.16 25.34zm-35.73.51c0 8.44 3.56 14.84 10.11 14.84 5.99 0 9.78-6 9.78-14.92 0-7.29-2.81-14.78-9.77-14.78-7.33 0-10.12 7.53-10.12 14.86zm-287.02 88.93l-4.42 16.09h-14.66l19.13-62.68h18.55l19.51 62.68h-15.27l-4.82-16.09h-18.02zm15.92-10.56l-3.9-13.32c-1.08-3.71-2.19-8.4-3.15-12.07h-.2c-.92 3.69-1.87 8.45-2.87 12.09l-3.75 13.31h13.87zm27.81-39.38h14.17v66.03h-14.17v-66.03zm52.51 15.25h-16.92v-11.9H406v11.9h-17.15v50.79h-14.17v-50.79zm81.02 27.57c0 16.63-11.78 24.24-23.99 24.24-13.24 0-23.5-8.75-23.5-23.45 0-14.69 9.69-24.11 24.32-24.11 13.91-.01 23.17 9.58 23.17 23.32zm-32.91.47c0 7.77 3.28 13.66 9.31 13.66 5.52 0 9.01-5.52 9.01-13.74 0-6.71-2.59-13.61-9-13.61-6.75 0-9.32 6.94-9.32 13.69zm69.38 17.05h-.2c-2.83 4.33-7.37 6.72-13.49 6.72-9.86 0-18.84-8.7-18.84-23.15 0-16.31 10.37-24.41 20.11-24.41 5.87 0 10.08 2.15 12.65 6.34l.19.04.37-5.36h13.68c-.14 4.42-.32 8.97-.32 13.68v50.26h-14.15v-24.12zm0-20.72c0-.77-.07-1.59-.24-2.31-.79-3.66-3.88-6.79-8.15-6.79-6.44 0-9.77 5.47-9.77 12.85 0 7.57 3.68 12.58 9.59 12.58 4.03 0 7.25-2.73 8.17-6.44.29-.94.4-2.15.4-3.1v-6.79zm66.03 11.83c0 5.92.18 10.81.37 14.59H546.3l-.65-6.42h-.3c-1.78 2.81-6.02 7.45-14.19 7.45-9.25 0-15.99-5.78-15.99-19.78v-26.76h14.17v24.46c0 6.66 2.14 10.65 7.13 10.65 3.85 0 6.12-2.67 7.04-4.98.35-.83.52-1.87.52-3v-27.13h14.17v30.92zm20.02-3.62c.42 5.87 6.23 8.66 12.83 8.66 4.79 0 8.71-.64 12.53-1.93l1.91 9.58c-4.71 1.92-10.39 2.88-16.49 2.88-15.42 0-24.27-8.98-24.27-23.17 0-11.57 7.21-24.36 22.94-24.36 14.75 0 20.32 11.47 20.32 22.73 0 2.46-.26 4.56-.51 5.6h-29.26zm16.62-9.7c.02-3.41-1.5-9.23-7.94-9.23-5.98 0-8.4 5.46-8.79 9.23h16.73z"/><g id="XMLID_282_"><g id="XMLID_284_"><path id="XMLID_288_" class="st0" d="M206.32 299.64c-5.78.15-11.58.24-17.35.21-.79.02-1.56 0-2.36-.02-1.03.02-2.05 0-3.08-.02-7.61-.13-15.21-.3-22.82-.71-7.58-.37-15.16-.86-22.74-1.46-7.56-.65-15.11-1.44-22.65-2.3-7.56-.88-15.07-1.85-22.55-3-7.49-1.16-14.95-2.41-22.38-3.77-7.44-1.4-14.83-2.89-22.19-4.5-7.34-1.64-14.66-3.4-21.95-5.23-2.41-.62-4.84-1.25-7.24-1.88.67-1.61 1.37-3.23 2.05-4.82 2.43-5.77 4.91-11.51 7.49-17.24 1.03-2.37 2.12-4.74 3.2-7.11 3.92 1.92 7.87 3.84 11.84 5.69.48.22.94.45 1.42.67.17.07.36.17.53.24-.67 1.51-1.35 3.02-2.05 4.52-1.83 4.2-3.75 8.36-5.68 12.54 4.62 1.27 9.27 2.46 13.91 3.64 7.15 1.81 14.3 3.51 21.52 5.09 7.2 1.64 14.44 3.15 21.71 4.57 7.29 1.42 14.61 2.78 21.93 4.03a711.09 711.09 0 0 0 22.12 3.45c7.39 1.1 14.83 2.09 22.29 2.97 2.31.26 4.64.54 6.98.78 4.14.49 8.3.93 12.47 1.36 1.01.09 2 .21 3.01.3 7.48.71 15.01 1.4 22.57 2z"/><path id="XMLID_287_" class="st0" d="M196.16 298.01c-5.63-1.01-11.24-2.09-16.82-3.28-.65-.13-1.3-.26-1.97-.43-1.11-.22-2.19-.47-3.3-.71-7.29-1.62-14.61-3.32-21.81-5.24-7.2-1.88-14.37-3.88-21.47-5.99-7.1-2.15-14.15-4.4-21.13-6.76-6.98-2.37-13.93-4.82-20.77-7.43-6.84-2.61-13.65-5.32-20.36-8.14-6.69-2.82-13.36-5.77-19.93-8.79-.48-.22-.94-.45-1.42-.67-4.6-2.15-9.17-4.37-13.69-6.61-1.44-.73-2.89-1.46-4.33-2.18a478.3 478.3 0 0 1-6.38-3.27c1.2-1.42 2.38-2.84 3.59-4.24 4.26-5.09 8.57-10.13 12.97-15.15 1.78-2.07 3.61-4.14 5.44-6.2 3.03 2.58 6.11 5.11 9.22 7.61.39.32.75.62 1.16.93l.14.11c.19.15.39.32.6.47a423.51 423.51 0 0 1-3.44 3.96c-3.2 3.68-6.43 7.32-9.7 10.96 2.79 1.49 5.58 2.93 8.4 4.37 1.28.65 2.55 1.31 3.85 1.94 6.28 3.17 12.64 6.27 19.06 9.26a685.9 685.9 0 0 0 19.47 8.77c6.57 2.82 13.14 5.6 19.81 8.29 6.67 2.69 13.41 5.28 20.22 7.78 6.79 2.54 13.62 4.98 20.53 7.33 2.31.78 4.64 1.57 6.96 2.35 3.68 1.21 7.39 2.43 11.12 3.6l2.82.9c6.99 2.21 14.06 4.37 21.16 6.46z"/><path id="XMLID_286_" class="st0" d="M186.87 294.41c-6.71-2.78-13.36-5.65-19.88-8.7-6.5-3.06-12.97-6.16-19.28-9.44-6.33-3.28-12.59-6.64-18.75-10.1-6.14-3.51-12.2-7.09-18.15-10.79-5.97-3.68-11.87-7.43-17.59-11.33-5.73-3.9-11.38-7.88-16.97-11.94a594.66 594.66 0 0 1-16.15-12.39l-.14-.11c-.41-.32-.77-.62-1.16-.93-3.22-2.59-6.4-5.23-9.55-7.89-.48-.39-.99-.82-1.47-1.25-1.16-.99-2.31-1.98-3.47-2.95-1.71-1.47-3.39-2.97-5.05-4.44l4.86-3.38c5.82-4.05 11.67-8.06 17.59-12.02 2.31-1.59 4.67-3.14 7-4.7.87 1.25 1.73 2.48 2.62 3.73.26.37.55.77.82 1.14 1.47 2.03 2.94 4.05 4.45 6.05-1.49 1.05-3.01 2.05-4.52 3.06-2.74 1.85-5.46 3.68-8.23 5.49-1.59 1.06-3.2 2.11-4.79 3.17 1.23 1.1 2.45 2.2 3.68 3.28.51.45 1.01.9 1.52 1.32.51.43.99.86 1.47 1.27.91.8 1.83 1.61 2.77 2.41.1.07.19.17.29.24 5.01 4.33 10.11 8.58 15.33 12.77 5.2 4.2 10.47 8.32 15.86 12.37 5.42 4.03 10.83 8.06 16.39 12a605.63 605.63 0 0 0 16.92 11.55c5.7 3.83 11.5 7.56 17.4 11.22 5.9 3.62 11.82 7.28 17.86 10.81 6.07 3.52 12.16 7.03 18.32 10.48z"/><path id="XMLID_285_" class="st0" d="M247.51 239.36c-4.77-3.35-9.43-6.8-13.94-10.35-4.51-3.57-8.96-7.17-13.24-10.9a456.04 456.04 0 0 1-12.6-11.36c-4.06-3.88-8.02-7.82-11.89-11.83a342.83 342.83 0 0 1-21.83-24.81c-3.39-4.28-6.67-8.6-9.85-12.98-2.07-2.86-4.07-5.73-6.04-8.64-1.6.65-3.18 1.31-4.79 1.98-3.46 1.4-6.93 2.8-10.39 4.19-3.6 1.47-7.24 2.92-10.88 4.34l-9.99 3.94c-.51.19-1.04.4-1.55.6-1.29.49-2.59.99-3.88 1.49-5.17 2-10.35 4.01-15.57 5.95-3.25 1.23-6.51 2.46-9.77 3.66-1.9.7-3.81 1.4-5.7 2.08 1.48 2.36 2.95 4.7 4.46 7.04.62.95 1.24 1.9 1.88 2.86.06.11.14.2.2.31 3.4 5.18 6.91 10.31 10.55 15.4 3.62 5.1 7.35 10.14 11.2 15.14 3.87 4.99 7.78 9.95 11.82 14.87s8.2 9.77 12.49 14.57c4.23 4.83 8.58 9.6 13.05 14.31 4.49 4.7 9 9.41 13.66 14.04 4.66 4.63 9.37 9.23 14.19 13.79-5.56-4.01-11.02-8.13-16.28-12.39-5.27-4.24-10.49-8.54-15.49-12.99-5.02-4.43-9.94-8.94-14.74-13.52-4.75-4.61-9.4-9.3-13.94-14.05-4.52-4.75-8.96-9.57-13.21-14.48-4.24-4.92-8.37-9.89-12.38-14.94-3.98-5.06-7.85-10.17-11.57-15.35-.26-.37-.54-.76-.81-1.13-2.24-3.16-4.44-6.34-6.59-9.54-.34-.49-.68-.99-1.01-1.49-.79-1.18-1.58-2.37-2.36-3.57-1.15-1.76-2.28-3.53-3.4-5.3 1.94-.76 3.88-1.52 5.84-2.29 6.96-2.73 13.97-5.43 20.99-8.07 6.99-2.69 14.08-5.22 21.11-7.84.02 0 .02-.01.03-.01 2.22-.8 4.43-1.59 6.65-2.39 4.86-1.76 9.73-3.51 14.62-5.22 3.57-1.25 7.13-2.51 10.69-3.75 3.57-1.23 7.13-2.46 10.7-3.69 2-.69 3.99-1.37 6-2.06.85 1.49 1.74 2.99 2.63 4.47 2.66 4.45 5.42 8.87 8.28 13.24 2.84 4.37 5.8 8.72 8.84 13.02 6.08 8.6 12.52 17.06 19.25 25.4 3.39 4.17 6.87 8.28 10.44 12.35 3.53 4.11 7.16 8.16 10.89 12.17 3.76 3.99 7.5 8 11.4 11.94 3.91 3.94 7.83 7.88 11.83 11.79z"/></g><path id="XMLID_283_" class="st0" d="M210.34 242.95c-.74-3.81-2.56-7.74-5.49-11.44-9.34-11.78-26.47-16.79-38.22-11.19-6.36 3.04-9.83 8.51-10.26 14.77-1.61-8.33 1.84-16.13 9.9-19.96 11.76-5.62 28.88-.61 38.22 11.17 4.28 5.41 6.19 11.31 5.85 16.65z"/></g></svg>