<svg xmlns="http://www.w3.org/2000/svg" width="287.635" height="243.265"><defs><filter id="a" x="33.562" y="33.562" width="71.472" height="75.169" filterUnits="userSpaceOnUse"><feOffset dy="3"/><feGaussianBlur stdDeviation="3" result="blur"/><feFlood flood-opacity=".161"/><feComposite operator="in" in2="blur"/><feComposite in="SourceGraphic"/></filter><filter id="b" x="182.6" y="134.533" width="71.472" height="75.169" filterUnits="userSpaceOnUse"><feOffset dy="3"/><feGaussianBlur stdDeviation="3" result="blur-2"/><feFlood flood-opacity=".161"/><feComposite operator="in" in2="blur-2"/><feComposite in="SourceGraphic"/></filter><filter id="c" x="0" y="0" width="287.635" height="243.265" filterUnits="userSpaceOnUse"><feOffset dy="3"/><feGaussianBlur stdDeviation="3" result="blur-3"/><feFlood flood-opacity=".161"/><feComposite operator="in" in2="blur-3"/><feComposite in="SourceGraphic"/></filter></defs><g data-name="Grupo 10381"><g filter="url(#a)" transform="translate(-.002 .005)"><path data-name="Trazado 260" d="M42.566 93.038V68.009A28.475 28.475 0 0171.009 39.57h21.332a3.7 3.7 0 010 7.4H71.009a21.073 21.073 0 00-21.048 21.047v25.021a3.7 3.7 0 11-7.4 0z" fill="#ededed"/></g><g filter="url(#b)" transform="translate(-.002 .005)"><path data-name="Trazado 261" d="M245.068 144.234v25.029a28.474 28.474 0 01-28.442 28.443h-21.332a3.7 3.7 0 110-7.4h21.332a21.071 21.071 0 0021.047-21.047v-25.025a3.7 3.7 0 017.4 0z" fill="#ededed"/></g><g filter="url(#c)" transform="translate(-.002 .005)"><path data-name="Trazado 262" d="M250.19 231.261H37.44a28.474 28.474 0 01-28.442-28.443V34.439A28.474 28.474 0 0137.439 6h212.75a28.475 28.475 0 0128.442 28.443v168.38a28.475 28.475 0 01-28.441 28.438zM37.439 13.391a21.071 21.071 0 00-21.047 21.047v168.38a21.071 21.071 0 0021.047 21.047h212.75a21.071 21.071 0 0021.047-21.047V34.439a21.071 21.071 0 00-21.046-21.048z" fill="#ededed"/></g></g></svg>