<svg version="1.1" id="Capa_1" xmlns="http://www.w3.org/2000/svg" x="0" y="0" viewBox="0 0 200 200" xml:space="preserve"><style>.st0{fill:#7a808d}</style><path class="st0" d="M162.5 104.7c-19.1 0-34.5 15.5-34.5 34.7 0 19.2 15.4 34.7 34.5 34.7s34.5-15.5 34.5-34.7c0-19.2-15.4-34.7-34.5-34.7zm-18.7 31.1c1.2-1.2 3-1.2 4.2 0l10.1 10.1 19.2-19.4c1.2-1.2 3-1.2 4.2 0 1 1.2 1 3.1-.1 4.3L160 152.3c-.6.6-1.3.9-2.1.9-.7 0-1.6-.2-2.1-.9l-12-12.3c-1.2-1.2-1.2-3 0-4.2z"/><path class="st0" d="M162.5 99.9c4.2 0 8.1.7 11.9 1.9v-12c0-7.4-4.2-17.7-10.6-23.2-.1-.1-.2-.3-.4-.4l-6-5.8c5-1.1 10.3-5.3 10.3-9.7 0-5-6.9-6.8-12.8-6.8-6.2 0-6.9 4.3-7 7.3l-15.5-15c-3.1-3.1-9.1-5.6-13.6-5.6H58.5c-4.5 0-10.4 2.5-13.6 5.6l-15.5 15c-.1-3-.8-7.3-7-7.3-5.9 0-12.8 1.8-12.8 6.8 0 4.3 5.4 8.5 10.3 9.7l-6 5.8c-.1.1-.2.3-.3.4C7.2 72.1 3 82.4 3 89.8v22.1c0 5.4 2.1 10.2 5.5 13.9v8.6c0 5 4.2 9.1 9.3 9.1H29c5.1 0 9.3-4.1 9.3-9.1v-2.2H124c3.4-18.3 19.4-32.3 38.5-32.3zM158 76.6c5.2 0 9.5 4.4 9.5 9.9 0 5.4-4.2 9.9-9.5 9.9-5.2 0-22.3 1.3-22.3-4.2s17.1-15.6 22.3-15.6zM50.6 42.8c2.2-1.8 6-3.2 7.9-3.2h60.4c1.9 0 5.7 1.4 7.9 3.2l20.3 19.8H30.3l20.3-19.8zM19.4 76.6c5.2 0 22.3 10.1 22.3 15.5s-17.1 4.2-22.3 4.2c-5.2 0-9.5-4.4-9.5-9.9.1-5.4 4.3-9.8 9.5-9.8zm-3.6 41.5l-5.7-8.3c-.4-.6 0-1.3.7-1.3h23.6l8.4 9.7h-27zm101.5-12.4H60.2c-5.9 0-10.8-7.4-10.8-16.5H128c0 9.1-4.8 16.5-10.7 16.5z"/></svg>