<svg version="1.1" id="Capa_1" xmlns="http://www.w3.org/2000/svg" x="0" y="0" viewBox="0 0 200 200" xml:space="preserve"><style>.st0{fill:#7a808d}</style><path class="st0" d="M169.1 101.2L112.4 136c-3.4 2-7.7 3.3-12.2 3.3-4.5 0-8.9-1.1-12.2-3.3l-55.2-33.9s-4.9-3-4.9 3.8v33.8c0 17.8 32.4 37 72.5 37s72.5-19.2 72.5-37V104c-.2-5.6-3.8-2.8-3.8-2.8z"/><path class="st0" d="M107.9 126.8L192 75.1c4.3-2.6 4.3-6.8 0-9.4l-84.2-42.1c-4.3-2.6-11.2-2.6-15.5 0L8.2 65.7c-4.3 2.6-4.3 6.8 0 9.4l84.2 51.6c4.3 2.6 11.2 2.6 15.5.1zm81.7 26c-.3-.1-1-.4-1-1.2v-57s0-2.7-1.6-1.8c-1.2.7-4.5 2.5-5.5 3.5-1.2 1.1-1 3.6-1 3.6v51.7c0 .8-.7 1.1-.9 1.2-2.9 1.7-4.8 4.8-4.8 8.5 0 5.4 4.4 9.9 9.9 9.9 5.4 0 9.9-4.4 9.9-9.9-.1-3.6-2.1-6.8-5-8.5z"/></svg>