<svg version="1.1" id="Capa_1" xmlns="http://www.w3.org/2000/svg" x="0" y="0" viewBox="0 0 200 200" xml:space="preserve"><style>.st0{fill:#7a808d}</style><path class="st0" d="M149.3 10.5c0-2.2-1.8-4.1-4.1-4.1H37c-2.2 0-4.1 1.8-4.1 4.1v17.2h116.5V10.5zm-133.1 54h149.2l-.1-.2-.5-1-14.7-31H32.2l-16.1 32h.2zm149.1 91v-.1l-.1.1zm-11.7-33.4h9.1l5.2-18-9.2.7-2.9 10.1-2.9-10.1-9.4-.7 5.2 18zm-.6 30c-.3.3-.6.7-.7 1.1-.2.4-.2.8-.2 1.3s.1.9.3 1.3c.2.4.4.7.7 1 .3.3.7.6 1.1.8.4.2.9.4 1.4.6l.6-7.3c-.7.1-1.3.2-1.8.4-.7.2-1.1.5-1.4.8zm7.2 11.8c-.3-.3-.7-.5-1.2-.7-.5-.2-.9-.4-1.5-.6l-.6 8c1.4-.2 2.5-.6 3.2-1.4.7-.8 1.1-1.8 1.1-3 0-.5-.1-1-.3-1.3-.1-.4-.3-.7-.7-1z"/><path class="st0" d="M185.6 162.5s0-1.9-1-5.1c-.4-1.4-.9-2.7-1.4-3.9-2.9-6.6-8.7-16.2-20.6-26.6h-13.1c-10.1 8.8-15.9 17.2-19.1 23.5-1.6 2.5-2.7 5.3-3.5 8.7-.6 2.2-.4 3.3-.4 3.3-.1 1.2-.1 2.3-.1 3.5 0 18.6 14.3 27.6 29.9 27.6 16.7 0 29.9-9 29.9-27.4-.5-1.2-.5-2.4-.6-3.6zm-21.2 6.2c-.4 1-.9 1.8-1.6 2.5-.7.7-1.6 1.3-2.6 1.8s-2.2.7-3.5.8l-.2 2.9c0 .3-.1.5-.3.7-.2.2-.4.3-.7.3H154l.3-3.9c-1.4-.2-2.7-.5-3.9-1.1-1.2-.6-2.3-1.3-3.1-2.2l1.2-1.8c.1-.2.2-.3.4-.4.2-.1.4-.2.6-.2.3 0 .5.1.8.3.3.2.6.4 1 .7.4.3.9.5 1.4.8.5.3 1.2.4 1.9.6l.7-8.7c-.8-.3-1.7-.5-2.5-.9-.8-.3-1.6-.7-2.2-1.3-.7-.5-1.2-1.2-1.6-2-.4-.8-.6-1.8-.6-3 0-.9.2-1.8.5-2.6.4-.8.9-1.6 1.5-2.3.7-.7 1.5-1.2 2.5-1.6 1-.4 2.1-.7 3.4-.7l.2-2.4c0-.3.1-.5.3-.7.2-.2.4-.3.7-.3h1.4l-.3 3.5c1.3.2 2.3.5 3.3 1 .9.5 1.7 1.1 2.4 1.8l-.9 1.4c-.3.4-.6.6-1 .6-.2 0-.4-.1-.6-.2-.2-.1-.5-.3-.9-.5-.3-.2-.7-.4-1.1-.5-.4-.2-.9-.3-1.4-.4l-.6 8c.9.3 1.7.6 2.6.9.8.3 1.6.7 2.3 1.2.7.5 1.2 1.1 1.6 1.9.4.7.6 1.7.6 2.8 0 1.2-.1 2.2-.5 3.2zm-21.7-44.4c0-.1-.1-.3-.2-.4l-5.2-18c-.6-2-.1-4.2 1.2-5.9 1.3-1.6 3.4-2.5 5.5-2.4l9.4.7c.9.1 1.7.3 2.4.7.5-.2 1-.4 1.6-.5V86.7h-.1v-8.3c-2.5 1.5-5.2 2.2-8.3 2.2-6.4 0-11.9-3.6-14.5-9-2.7 5.3-8.2 9-14.6 9s-11.9-3.6-14.6-9c-2.7 5.3-8.3 9-14.6 9s-11.9-3.6-14.6-9c-2.7 5.3-8.3 9-14.6 9-6.4 0-11.9-3.6-14.6-9-2.7 5.3-8.3 9-14.7 9-2.9 0-5.4-.7-7.8-2v60.7h-4.5c-2.2 0-4.1 1.8-4.1 4.1v12h105.6c.9-3 2-5.7 3.5-8.1 2.6-5.6 8-14 17.8-23zm-68.5 6.5H40.9V89.5h33.3v41.3z"/></svg>