<svg version="1.1" id="Capa_1" xmlns="http://www.w3.org/2000/svg" x="0" y="0" viewBox="0 0 200 200" xml:space="preserve"><style>.st0{fill:#7a808d}</style><path class="st0" d="M90.6 152.2H67.7v10.3H85c.6-4.2 2.6-7.8 5.6-10.3z"/><path class="st0" d="M15.5 62.2l68.9-29.5 69.1 29.5v24.4h10.3V55.5l-79.4-34-79.2 34v107h54.7v-10.1H15.5z"/><path class="st0" d="M57.7 122H26.4c-1.3 0-2.2 1.1-2.2 2.2v17.6c0 1.3 1.1 2.2 2.2 2.2h31.2c1.3 0 2.2-1.1 2.2-2.2v-17.6c.1-1.1-.9-2.2-2.1-2.2zm42.4 22.1c1.3 0 2.2-1.1 2.2-2.2v-17.6c0-1.3-1.1-2.2-2.2-2.2H68.9c-1.3 0-2.2 1.1-2.2 2.2v17.6c0 1.3 1.1 2.2 2.2 2.2h31.2zm11.2-22.1c-1.3 0-2.2 1.1-2.2 2.2v17.6c0 1.3 1.1 2.2 2.2 2.2h20c1.3 0 2.2-1.1 2.2-2.2v-17.6c0-1.3-1.1-2.2-2.2-2.2h-20zM57.7 91.7H26.4c-1.3 0-2.2 1.1-2.2 2.2v17.6c0 1.3 1.1 2.2 2.2 2.2h31.2c1.3 0 2.2-1.1 2.2-2.2V93.9c.1-1.2-.9-2.2-2.1-2.2zm42.4 0H68.9c-1.3 0-2.2 1.1-2.2 2.2v17.6c0 1.3 1.1 2.2 2.2 2.2h31.2c1.3 0 2.2-1.1 2.2-2.2V93.9c.1-1.2-.9-2.2-2.2-2.2zm2.3-28c0-1.3-1.1-2.2-2.2-2.2H68.9c-1.3 0-2.2 1.1-2.2 2.2v17.6c0 1.3 1.1 2.2 2.2 2.2h31.2c1.3 0 2.2-1.1 2.2-2.2V63.7h.1z"/><path class="st0" d="M191 152.7V122l-19.6-28.6h-30v58.7h-29.6c3 2.6 5.2 6.2 5.7 10.3h30.4c1.2-8.1 8-14.3 16.3-14.3s15.2 6.2 16.3 14.3h9.7l5.4-9.8H191v.1zm-40.7-31.5v-16.3H169l11 16.3h-29.7z"/><circle class="st0" cx="164.3" cy="164.8" r="12.1"/><path class="st0" d="M101.2 152.7c-6.6 0-12.1 5.4-12.1 12.1 0 6.6 5.4 12.1 12.1 12.1 6.6 0 12.1-5.4 12.1-12.1 0-6.7-5.3-12.1-12.1-12.1z"/></svg>