<svg version="1.1" id="Capa_1" xmlns="http://www.w3.org/2000/svg" x="0" y="0" viewBox="0 0 200 200" xml:space="preserve"><style>.st0{fill:#7a808d}</style><path class="st0" d="M161.5 127.9c-17.5 0-31.6 14.2-31.6 31.6s14.2 31.6 31.6 31.6 31.6-14.2 31.6-31.6-14.1-31.6-31.6-31.6zm-14 35.7c-2.2 0-4.1-1.8-4.1-4.1 0-2.2 1.8-4.1 4.1-4.1s4.1 1.8 4.1 4.1-1.9 4.1-4.1 4.1zm14 0c-2.2 0-4.1-1.8-4.1-4.1 0-2.2 1.8-4.1 4.1-4.1s4.1 1.8 4.1 4.1-1.8 4.1-4.1 4.1zm14 0c-2.2 0-4.1-1.8-4.1-4.1 0-2.2 1.8-4.1 4.1-4.1s4.1 1.8 4.1 4.1-1.8 4.1-4.1 4.1z"/><path class="st0" d="M161.2 122.1l-.1-34.2v-2.2c0-1.4-1-2-2.1-2.8L96.9 34.1l-63 49.8c-.4.5-.6 1.1-.6 1.7v64.7H29c-2.1 0-4 1.7-4 4v11.5h57.2l24.8.1h17.5c-.3-2.1-.5-4.2-.5-6.3 0-20.6 16.7-37.4 37.2-37.5zm-79.7 5.4h-32v-25h31.9v25zm63.7-88.8c5.2 4.5 10.5 8.3 16.3 13.1V16.3H144c0 6.9 0 13.4.1 20 0 .8.5 1.9 1.1 2.4z"/><path class="st0" d="M170.6 83.1h15.2c.8 0 1.2-1 .6-1.5-.4-.3-.7-.6-1.1-1l-3.1-2.5L134.3 39c-8.3-6.6-16.6-13.3-24.8-20.3L97 8.5 84.6 18.6 59.8 38.9 11.9 78l-3.1 2.5c-.4.3-.7.6-1.1 1-.6.5-.2 1.5.6 1.5h15.2L97 25.7l73.6 57.4z"/></svg>