<svg version="1.1" id="Capa_1" xmlns="http://www.w3.org/2000/svg" x="0" y="0" viewBox="0 0 200 200" xml:space="preserve"><style>.st0{fill:#7a808d}</style><path class="st0" d="M194.4 114.4l-4.3-28.6-1.5-10c-.2-1.5-1.1-2.9-2.3-3.8-1.3-.9-2.8-1.3-4.4-1.1l-12.2 1.9-1.4-2.9-7.1-15.3-4.4-9.5c-1.3-2.9-4.8-4.2-7.7-2.9l-14.2 6.3-22.7 10.1c2.6 3 4.9 6.3 6.9 9.7l20-8.9 3.1-1.4c1.7 1.7 4.5 3.1 8.7 2.3l1.1 2.4 5.6 12-12.6 1.8c-1.2-2.8-4-4.7-7.2-4.7-4 0-7.4 3.1-7.8 7l-5.6.9c1.3 3.7 2.3 7.5 2.9 11.4.1.4.1.7.1 1.1l11-2.8 26.9-4.1 4.1-.6c.9 2.8 3.3 6.3 9.7 7.9l.1.7 1.4 9.2.9 5.6.5 3.5c-5.9 3-7.1 8.4-7.2 11.6l-1.8-.2-3.8.1-45.5 1.3c-1.6 4.2-3.7 8.2-6.1 11.9l12.7-.4c-.2.7-.3 1.4-.3 2.1 0 4.3 3.5 7.8 7.8 7.8s7.8-3.5 7.8-7.8c0-.9-.2-1.8-.4-2.6l27.8-.8v9.2c-5.4 1.9-7.2 5.7-7.7 8.7h-4.6l-57.3-.5c-6.5 5.2-13.9 9.1-22.1 11.5l82.1.6 15.4.1c1.5 0 3-.6 4.1-1.7 1.1-1.1 1.7-2.6 1.7-4.2v-24.2l2.9-.1c4.1-1.6 7.3-5 8.4-9.4l-1.5-10.2z"/><path class="st0" d="M121.2 101c0-32.4-26.2-58.6-58.6-58.6C30.3 42.4 4 68.7 4 101s26.2 58.6 58.6 58.6c32.4 0 58.6-26.2 58.6-58.6zm-58.6 48.9c-27 0-48.8-21.9-48.8-48.8s21.9-48.8 48.8-48.8 48.8 21.9 48.8 48.8-21.8 48.8-48.8 48.8zm76.1-37.4c1.5 1.6 3.6 2.5 5.9 2.5 2.4 0 4.6-1 6-2.7 1.3-1.4 2.1-3.3 2.1-5.4 0-1.2-.3-2.4-.8-3.5-.6-1.2-1.5-2.3-2.6-3.1-1.3-1-3-1.6-4.8-1.6-3.2 0-6 1.9-7.3 4.6l-.9.2h.8c-.4 1-.7 2.1-.7 3.3.1 2.3 1 4.2 2.3 5.7z"/><path class="st0" d="M64.3 96.1V75.5l-3.9-1.8v22.1c-3.2.7-5.7 3.6-5.7 6.8 0 3.9 3.2 7.1 7.1 7.1 3.2 0 5.7-2.1 6.8-5h3.9l8.2-.4 1.1-3.6-12.8.4c-.8-2.5-2.6-4.3-4.7-5zm-3.4-40h3.5v7.8h-3.5zM18 98.9h7.8v3.5H18zm81.4 0h7.8v3.5h-7.8zm-39.9 38.6H63v7.8h-3.5z"/></svg>