<svg version="1.1" id="Capa_1" xmlns="http://www.w3.org/2000/svg" x="0" y="0" viewBox="0 0 200 200" xml:space="preserve"><style>.st0{fill:#7a808d}</style><path class="st0" d="M107.2 81.7c6.2-19.4 20.9-35.1 39.8-42.5l.9-.3c-1.1-1.2-1.7-2.7-1.7-4.4 0-1.4.4-2.5 1.1-3.6-1.9-.5-3.8-1.1-5.7-1.5-4.6-.9-9.3-1.5-14.3-1.5-28 0-52.2 17-62.5 41.3 4.2-1.9 8.8-2.8 13.8-2.8 11.9 0 22.5 6.1 28.6 15.3zm56.6-43.3c-1.5-.9-3-1.9-4.6-2.7-.6 2.8-2.9 4.9-5.9 5.1.1.2.1.3.2.5.7 1.7 1.4 3.5 2 5.3 5.9 18.1 3.8 36.9-4.3 52.5 2.5-.6 5.1-.8 7.8-.8 14.6 0 27.1 9.1 32 22.1 2.9-7.6 4.5-15.8 4.5-24.4-.1-24.3-12.7-45.5-31.7-57.6z"/><path class="st0" d="M115.3 142l21.6-53.7c3.5 2.2 6.6 5 9 8.4 7.5-15.3 9.2-33.4 3.6-50.8-.2-.7-.5-1.6-.8-2.3a68.13 68.13 0 00-35.8 39.9c1.8-.3 3.7-.4 5.7-.4 2.3 0 4.6.2 6.8.7L102 141.6h-.4c-28 0-54.2 8.2-76.1 22.4-2.1 1.4-4.1 2.7-6.1 4.2 1.1.5 2.1 1.1 3.2 1.8 10.5 7.1 24.2 7.1 34.7 0 8.3-5.6 19-5.6 27.3 0 10.5 7.1 24.2 7.1 34.7 0 8.3-5.6 19-5.6 27.3 0 5.3 3.6 11.3 5.4 17.3 5.4s12.1-1.8 17.3-5.4c.9-.6 1.9-1.2 2.9-1.7-2-1.5-4-2.8-6.1-4.1-18.4-12.4-39.8-20-62.7-22.2zm-80.9-20.3c9.3 0 17-7.6 17-17s-7.6-17-17-17c-9.3 0-17 7.6-17 17s7.7 17 17 17zm0-36.3c1.5 0 2.6-1.2 2.6-2.6v-5.3c0-1.5-1.2-2.6-2.6-2.6-1.5 0-2.6 1.2-2.6 2.6v5.3c0 1.4 1.2 2.6 2.6 2.6zM50 91.9c.6 0 1.4-.2 1.9-.7l3.8-3.8c1.1-1.1 1.1-2.7 0-3.7-1.1-1.1-2.7-1.1-3.7 0l-3.8 3.8c-1.1 1.1-1.1 2.7 0 3.7.4.4 1.1.7 1.8.7zm3.7 12.9c0 1.5 1.2 2.6 2.6 2.6h5.3c1.5 0 2.6-1.2 2.6-2.6s-1.2-2.6-2.6-2.6h-5.3c-1.3 0-2.6 1.1-2.6 2.6zm-5.6 13.7c-1.1 1.1-1.1 2.7 0 3.7l3.8 3.8c.5.5 1.2.7 1.9.7s1.4-.2 1.9-.7c1.1-1.1 1.1-2.7 0-3.7l-3.8-3.8c-1.1-1-2.8-1-3.8 0zm-16.3 8.4v5.3c0 1.5 1.2 2.6 2.6 2.6 1.5 0 2.6-1.2 2.6-2.6v-5.3c0-1.5-1.2-2.6-2.6-2.6-1.4-.1-2.6 1.1-2.6 2.6zm-11.1-8.4c-1.1-1.1-2.7-1.1-3.7 0l-3.8 3.8c-1.1 1.1-1.1 2.7 0 3.7.5.5 1.2.7 1.9.7.6 0 1.4-.2 1.9-.7l3.8-3.8c.9-1 .9-2.7-.1-3.7zM15 104.8c0-1.5-1.2-2.6-2.6-2.6H7.1c-1.5 0-2.6 1.2-2.6 2.6s1.2 2.6 2.6 2.6h5.3c1.4 0 2.6-1.1 2.6-2.6zm2-13.7c.5.5 1.2.7 1.9.7.6 0 1.4-.2 1.9-.7 1.1-1.1 1.1-2.7 0-3.7L17 83.6c-1.1-1.1-2.7-1.1-3.7 0-1.1 1.1-1.1 2.7 0 3.7l3.7 3.8z"/></svg>