<svg xmlns="http://www.w3.org/2000/svg" viewBox="0 0 600 161.6"><path d="M101.4 79.7c.1.3.3.3.5.5 7.9 4.4 12.5 11.2 14.6 19.8 1.6 6.9 1.8 13.9 1.5 20.9-.2 4.4-.8 8.8-1.9 13.1-3.1 11.5-10.4 19.1-21.7 22.9-4.9 1.7-10 2.6-15.2 3.1-4.8.5-9.6.5-14.5.5H15c-2.3 0-4.6-.1-6.9-.5-.7-.1-1.4-.3-2.1-.6-2.4-.8-3.9-2.4-4.8-4.7-.8-2.2-.9-4.4-1.1-6.7v-2.2C0 104 0 62.2 0 20.4c0-2.3.1-4.5.5-6.8.1-.8.4-1.5.6-2.3C2 9 3.6 7.5 5.9 6.7c2-.7 4.2-.9 6.3-1 1.1-.1 2.1-.1 3.2-.1h48.9c7.2 0 14.3.6 21.3 2.3 2.7.6 5.3 1.5 7.8 2.5 10 4.2 16.3 11.6 19 22 1.8 6.9 2 13.9 1.5 20.9-.2 3.9-.9 7.7-2.1 11.5-1.8 5.7-5 10.5-9.7 14.3-.3.2-.6.3-.7.6zM52.6 94.6H33.8c-1.2 0-1.2 0-1.2 1.2v36.9c0 .5.2.8.7.8h32.6c1.9 0 3.7-.1 5.6-.2 2-.2 4-.5 6-1.2 3.1-1.1 5.2-3.2 6.2-6.4.4-1.2.7-2.4.8-3.7.6-4.6.5-9.3.2-13.9-.1-1.4-.3-2.9-.6-4.3-1-4.4-3.6-7.1-8-8.1-2.9-.7-5.9-.9-8.8-1-5-.2-9.9-.1-14.7-.1zm-2.3-61.9H33.6c-1.1 0-1.1 0-1.1 1.1v32.3c0 1.4 0 1.4 1.1 1.4h30.5c3 0 5.9-.3 8.8-1.2 3.9-1.2 6.2-3.7 7.1-7.6.9-4.1.9-8.2.7-12.3-.1-1.8-.3-3.5-.7-5.2-.8-3.1-2.6-5.3-5.6-6.5-.8-.3-1.6-.6-2.4-.8-2.8-.8-5.7-1-8.6-1-4.3-.2-8.7-.2-13.1-.2zm405.6 47c.3.2.5.3.7.5 7.6 4.2 12.2 10.8 14.4 19.1 1.2 4.8 1.7 9.7 1.8 14.6.1 5.6-.1 11.2-1.2 16.8-1.1 5.2-2.8 10.1-5.9 14.4-3.8 5.4-9 8.9-15.1 11.2-4.5 1.7-9.2 2.7-14 3.4-5.3.7-10.6.9-16 .8h-50.9c-2.2 0-4.4-.1-6.5-.5-5.2-.9-7.4-3.3-8.1-8.5-.2-1.8-.3-3.5-.3-5.3V19.8c0-2.3.1-4.5.6-6.8.8-3.9 3.1-6.2 7-7 2.2-.4 4.4-.6 6.6-.6 17.8 0 35.6-.1 53.4.1 7.4.1 14.7 1 21.8 3.3 5 1.6 9.6 3.9 13.5 7.5 4.9 4.4 7.8 10 9.4 16.3 1.5 6.2 1.9 12.5 1.6 18.8-.2 4.1-.7 8.1-1.8 12.1-1.8 6.3-5.1 11.6-10.3 15.7-.3.2-.4.3-.7.5zm-48.7 14.9h-18.8c-1.2 0-1.2 0-1.2 1.2v36.9c0 .5.2.8.7.8h32.4c1.9 0 3.8-.1 5.7-.2 2.1-.2 4.2-.5 6.3-1.3 3-1.1 5-3.2 6-6.2.3-.8.5-1.7.7-2.6.7-3.5.6-7 .6-10.5 0-3-.2-6-.8-9-1-4.3-3.6-7-7.9-8-2.9-.7-5.9-.9-8.8-1-5.1-.2-10-.1-14.9-.1zm-2.1-61.9h-16.7c-1.2 0-1.2 0-1.2 1.1v32.6c0 1.1 0 1.1 1.1 1.1h30.6c2.8 0 5.6-.3 8.4-1.1 4-1.1 6.5-3.6 7.4-7.7.2-.7.3-1.5.4-2.2.5-3.8.4-7.6.2-11.4-.1-1.5-.3-3-.8-4.5-.9-2.8-2.6-4.9-5.4-6-.8-.3-1.6-.6-2.4-.8-2.8-.8-5.7-1-8.5-1-4.4-.1-8.8-.1-13.1-.1zm-207 119.5c-4.7 2-9.3 3.9-14 5.4-6.5 2.1-13.1 3.6-19.9 4-3.8.2-7.6 0-11.4-.8-7.9-1.8-13.4-6.5-16.8-13.8-2.1-4.4-3.3-9.1-4.2-14-1.4-8.1-1.8-16.2-1.9-24.4-.1-6.4 0-12.8.6-19.2.6-7.3 1.6-14.6 4.1-21.5.8-2.2 1.8-4.4 3.1-6.4 3.7-6.1 9.1-9.6 16-11 5.3-1 10.5-.9 15.8-.1 9.4 1.3 18.2 4.5 26.9 8 .4.2.9.3 1.3.5.1 0 .2 0 .4.1.1-.5.3-.9.4-1.4.8-3.2 2.8-5.2 6-6 1.6-.4 3.2-.6 4.8-.7 3.7-.2 7.3-.2 11 .4.7.1 1.4.3 2 .5 2.7.8 4.4 2.6 5.2 5.3.5 1.7.7 3.5.8 5.2.1 1.2.1 2.4.1 3.6v79.3c0 2.5-.1 5-.6 7.5-.8 3.9-3.1 6.2-7 7-2 .4-4 .6-6.1.6-3.1 0-6.1.1-9.2-.6-.7-.1-1.4-.3-2-.6-2.4-.8-4-2.5-4.8-4.9-.2-.6-.4-1.2-.6-2zm-.5-46.4V85.9c0-.7-.1-1.2-.9-1.5-5.5-2.4-11-4.8-16.7-6.5-3.8-1.1-7.6-2-11.6-1.8-1.9.1-3.4.9-4.4 2.5-.8 1.2-1.2 2.6-1.6 4-.8 3-1.2 6-1.4 9.1-.6 10.2-.7 20.4.2 30.6.3 2.8.7 5.6 1.7 8.3 1.3 3.5 3 4.7 6.7 4.5 2.7-.1 5.3-.5 7.8-1.2 6.5-1.7 12.6-4.2 18.8-6.8.9-.4 1.2-.8 1.2-1.8.2-6.5.2-13 .2-19.5zM273.3 59c3.3-1.4 6.7-2.7 10.1-4 6-2.1 12-3.9 18.3-4.7 5.6-.7 11.1-.9 16.6.3 6.3 1.4 11.1 4.9 14.6 10.3 2.6 4 4.1 8.5 5.4 13.1 1.6 5.7 1.9 11.5 1.9 17.4.1 18.5 0 37.1 0 55.6 0 2.2-.2 4.4-.7 6.6-.8 3.2-2.8 5.2-5.9 6-1.4.4-2.9.6-4.4.7-4.1.2-8.2.3-12.2-.4-.9-.2-1.7-.4-2.5-.7-2.1-.8-3.6-2.3-4.3-4.4-.6-1.7-.9-3.4-1-5.2-.1-1.3-.1-2.6-.1-3.9V90.2c0-2.9-.2-5.8-.8-8.6-.2-.8-.4-1.5-.7-2.2-1.1-2.3-2.8-3.4-5.4-3.4-3.7 0-7.3.8-10.8 1.8-5.8 1.7-11.4 4.1-17 6.6-.6.3-.9.6-.8 1.2v59.8c0 2.6 0 5.2-.6 7.8-.8 3.5-2.8 5.8-6.3 6.6-1.3.3-2.6.5-3.8.6-4 .2-8 .3-11.9-.4-.7-.1-1.4-.3-2.1-.6-2.3-.8-3.9-2.5-4.7-4.8-.5-1.5-.8-3.2-.9-4.8-.1-1.8-.1-3.5-.1-5.3V66.6c0-2.9 0-5.8.6-8.7.8-3.5 2.9-5.6 6.4-6.4 3.8-.8 7.7-.8 11.6-.6 1.7.1 3.4.3 5.1.7 3.3.8 5.3 2.9 6.2 6.1.1.4.2.7.3 1.1-.3 0-.2.1-.1.2zm296.4 54.5v33.2c0 1.8-.1 3.5-.3 5.3-.7 4.8-2.8 7.2-7.5 8.1-4.9.9-9.9.9-14.8.1-5-.9-7.1-3.3-7.8-8.4-.2-1.8-.3-3.6-.3-5.4V78.1c0-2 .3-1.9-1.8-1.9-2 0-4.1-.2-6.1-.6-3.7-.7-6-2.9-6.9-6.6-.8-3.5-.8-7.1-.1-10.6.9-4.2 3.2-6.3 7.6-7 2.1-.3 4.2-.4 6.2-.4 1.1 0 1.1 0 1.1-1.1.2-4.8.4-9.6 1.1-14.4.6-5 1.6-9.9 3.3-14.6 2-5.5 5.7-9.3 11-11.6 4.2-1.8 8.5-2.9 13-3.3 5.6-.5 11.1-.4 16.7-.2 2.3.1 4.5.4 6.7 1 6 1.6 8.8 5.1 9.1 11.3.1 1.6 0 3.2-.3 4.7-.9 4.1-3.3 7-7.2 8.6-3.3 1.4-6.7 1.8-10.2 1.9-2.1 0-4.2-.1-6.2.3-3.7.7-5.5 2.5-6 6.3-.5 3.5-.2 7-.2 10.4 0 .4.2.7.6.7h1.1c4 0 8.1 0 12.1.2 1.5.1 3 .3 4.4.7 2.9.8 4.8 2.7 5.6 5.6.8 3 .9 6 .6 9.1-.1 1.2-.3 2.3-.7 3.4-.9 2.8-2.7 4.6-5.5 5.4-1.8.5-3.7.8-5.6.8-3.9.1-7.7 0-11.6.1-1.3 0-1.3 0-1.3 1.3.2 11.9.2 23.9.2 35.9zm-54.3-7.8v40.7c0 2.4-.1 4.7-.6 7.1-.8 3.4-2.8 5.5-6.2 6.4-1.3.3-2.6.5-4 .6-4 .3-8.1.3-12.1-.4-.9-.2-1.7-.4-2.5-.7-2-.8-3.4-2.3-4.2-4.4-.7-2-1-4.1-1.1-6.1-.1-1.1-.1-2.2-.1-3.3V66.3c0-2.6.1-5.1.5-7.6.7-3.8 2.9-6.2 6.8-7 1.4-.3 2.8-.5 4.3-.6 3.7-.2 7.4-.2 11.1.4.7.1 1.4.3 2.2.5 2.6.8 4.2 2.6 5 5.1.8 2.6.9 5.3.9 8v40.6z" fill-rule="evenodd" clip-rule="evenodd" fill="#20a6ff"/><path d="M479.6 20.1c-.3-10.6 9.5-21.8 22.7-19.9 4.6.7 8.7 2.4 12 5.7 3.1 3.1 5 6.9 5.7 11.2 1.2 7.6-.7 14.5-6 20.2-3.8 4.1-8.5 6.4-14.1 6.7-5 .2-9.2-1.9-12.7-5.4-4-4.2-6.3-9.2-7.3-14.9-.2-1.3-.3-2.5-.3-3.6zm7.8-1.2c0 3.5 1.5 7.2 4 9.5 2.3 2.1 4.9 2.8 7.9 1.9 7.2-2.2 9.5-10.3 6.5-15.9-2.1-3.8-6.8-5.8-11.1-4.7-4.3 1.1-7.3 4.9-7.3 9.2z" fill-rule="evenodd" clip-rule="evenodd" fill="#c4d600"/></svg>