<svg xmlns="http://www.w3.org/2000/svg" width="13.998" height="13.998" viewBox="0 0 13.998 13.998">
  <path id="Icon_metro-filter" data-name="Icon metro-filter" d="M9.57,1.928c-3.865,0-7,.979-7,2.187V5.427L7.82,10.677v4.374c0,.483.783.875,1.75.875s1.75-.392,1.75-.875V10.677l5.249-5.249V4.115C16.569,2.907,13.435,1.928,9.57,1.928Zm-5.709,1.9a5.953,5.953,0,0,1,1.33-.512A17.254,17.254,0,0,1,9.57,2.8a17.254,17.254,0,0,1,4.379.51,5.954,5.954,0,0,1,1.33.512,1.522,1.522,0,0,1,.387.289,1.523,1.523,0,0,1-.387.289,5.954,5.954,0,0,1-1.33.512,17.254,17.254,0,0,1-4.379.51,17.254,17.254,0,0,1-4.379-.51A5.953,5.953,0,0,1,3.861,4.4a1.523,1.523,0,0,1-.387-.289,1.523,1.523,0,0,1,.387-.289Z" transform="translate(-2.57 -1.928)" fill="#005198"/>
</svg>
