<svg xmlns="http://www.w3.org/2000/svg" width="22.861" height="16.003" viewBox="0 0 22.861 16.003">
  <path id="Icon_awesome-cloud-download-alt" data-name="Icon awesome-cloud-download-alt" d="M19.2,9.2A3.433,3.433,0,0,0,16,4.536a3.412,3.412,0,0,0-1.9.579A5.716,5.716,0,0,0,3.429,7.965c0,.1,0,.193.007.289a5.145,5.145,0,0,0,1.707,10H18.289A4.572,4.572,0,0,0,19.2,9.2ZM14.456,12.37l-3.765,3.765a.574.574,0,0,1-.807,0L6.119,12.37a.571.571,0,0,1,.4-.975H8.859v-4a.573.573,0,0,1,.572-.572h1.715a.573.573,0,0,1,.572.572v4h2.336a.571.571,0,0,1,.4.975Z" transform="translate(0 -2.25)" fill="#005198"/>
</svg>
