<svg xmlns="http://www.w3.org/2000/svg" width="31" height="31" viewBox="0 0 31 31">
  <g id="Grupo_10585" data-name="Grupo 10585" transform="translate(-10638.247 -1319)">
    <circle id="Elipse_89" data-name="Elipse 89" cx="15.5" cy="15.5" r="15.5" transform="translate(10638.247 1319)" fill="#fff"/>
    <path id="Icon_material-rotate-90-degrees-ccw" data-name="Icon material-rotate-90-degrees-ccw" d="M7.105,6.21,1.29,12.035,7.114,17.85l5.824-5.815L7.105,6.21ZM3.83,12.035,7.114,8.75l3.276,3.285L7.105,15.319,3.83,12.035ZM17.892,6.417a8.031,8.031,0,0,0-5.708-2.369V1.14L8.38,4.945,12.185,8.75V5.843A6.282,6.282,0,1,1,9.636,17.859L8.3,19.2A8.07,8.07,0,0,0,17.892,6.417Z" transform="translate(10642.472 1323.829)" fill="#a2aaad"/>
  </g>
</svg>
