<svg id="Icon_ionic-ios-pause" data-name="Icon ionic-ios-pause" xmlns="http://www.w3.org/2000/svg" width="9.222" height="11.526" viewBox="0 0 9.222 11.526">
  <path id="Trazado_9730" data-name="Trazado 9730" d="M11.59,18.276h-2.3A.29.29,0,0,1,9,17.988V7.038a.29.29,0,0,1,.292-.288h2.3a.29.29,0,0,1,.292.288v10.95A.29.29,0,0,1,11.59,18.276Z" transform="translate(-9 -6.75)" fill="#a2aaad"/>
  <path id="Trazado_9731" data-name="Trazado 9731" d="M23.965,18.276h-2.3a.29.29,0,0,1-.292-.288V7.038a.29.29,0,0,1,.292-.288h2.3a.29.29,0,0,1,.292.288v10.95A.29.29,0,0,1,23.965,18.276Z" transform="translate(-15.036 -6.75)" fill="#a2aaad"/>
</svg>
