<?xml version="1.0" encoding="utf-8"?>
<!-- Generator: Adobe Illustrator 21.1.0, SVG Export Plug-In . SVG Version: 6.00 Build 0)  -->
<svg version="1.1" id="Capa_1" xmlns="http://www.w3.org/2000/svg" xmlns:xlink="http://www.w3.org/1999/xlink" x="0px" y="0px"
	 viewBox="0 0 200 200" style="enable-background:new 0 0 200 200;" xml:space="preserve">
<style type="text/css">
	.st0{fill:#7A808D;}
</style>
<g>
	<path class="st0" d="M162.5,104.7c-19.1,0-34.5,15.5-34.5,34.7c0,19.2,15.4,34.7,34.5,34.7c19.1,0,34.5-15.5,34.5-34.7
		C197,120.2,181.6,104.7,162.5,104.7z M143.8,135.8c1.2-1.2,3-1.2,4.2,0l10.1,10.1l19.2-19.4c1.2-1.2,3-1.2,4.2,0
		c1,1.2,1,3.1-0.1,4.3l-21.4,21.5c-0.6,0.6-1.3,0.9-2.1,0.9c-0.7,0-1.6-0.2-2.1-0.9L143.8,140C142.6,138.8,142.6,137,143.8,135.8z"
		/>
	<path class="st0" d="M162.5,99.9c4.2,0,8.1,0.7,11.9,1.9v-12c0-7.4-4.2-17.7-10.6-23.2c-0.1-0.1-0.2-0.3-0.4-0.4l-6-5.8
		c5-1.1,10.3-5.3,10.3-9.7c0-5-6.9-6.8-12.8-6.8c-6.2,0-6.9,4.3-7,7.3l-15.5-15c-3.1-3.1-9.1-5.6-13.6-5.6H88.7h0H58.5
		c-4.5,0-10.4,2.5-13.6,5.6l-15.5,15c-0.1-3-0.8-7.3-7-7.3c-5.9,0-12.8,1.8-12.8,6.8c0,4.3,5.4,8.5,10.3,9.7l-6,5.8
		c-0.1,0.1-0.2,0.3-0.3,0.4C7.2,72.1,3,82.4,3,89.8v22.1c0,5.4,2.1,10.2,5.5,13.9v8.6c0,5,4.2,9.1,9.3,9.1H29c5.1,0,9.3-4.1,9.3-9.1
		v-2.2h50.4h0H124C127.4,113.9,143.4,99.9,162.5,99.9z M158,76.6c5.2,0,9.5,4.4,9.5,9.9c0,5.4-4.2,9.9-9.5,9.9
		c-5.2,0-22.3,1.3-22.3-4.2C135.7,86.7,152.8,76.6,158,76.6z M50.6,42.8c2.2-1.8,6-3.2,7.9-3.2h30.2h0h30.2c1.9,0,5.7,1.4,7.9,3.2
		l20.3,19.8H88.7h0H30.3L50.6,42.8z M19.4,76.6c5.2,0,22.3,10.1,22.3,15.5c0,5.4-17.1,4.2-22.3,4.2c-5.2,0-9.5-4.4-9.5-9.9
		C10,81,14.2,76.6,19.4,76.6z M15.8,118.1l-5.7-8.3c-0.4-0.6,0-1.3,0.7-1.3h5.4c0,0,0,0,0,0h18.2l8.4,9.7H15.8z M117.3,105.7H88.7h0
		H60.2c-5.9,0-10.8-7.4-10.8-16.5h39.3h0H128C128,98.3,123.2,105.7,117.3,105.7z"/>
</g>
</svg>
