<?xml version="1.0" encoding="utf-8"?>
<!-- Generator: Adobe Illustrator 21.1.0, SVG Export Plug-In . SVG Version: 6.00 Build 0)  -->
<svg version="1.1" id="Capa_1" xmlns="http://www.w3.org/2000/svg" xmlns:xlink="http://www.w3.org/1999/xlink" x="0px" y="0px"
	 viewBox="0 0 200 200" style="enable-background:new 0 0 200 200;" xml:space="preserve">
<style type="text/css">
	.st0{fill:#7A808D;}
</style>
<g>
	<path class="st0" d="M169.1,101.2L112.4,136c-3.4,2-7.7,3.3-12.2,3.3c-4.5,0-8.9-1.1-12.2-3.3l-55.2-33.9c0,0-4.9-3-4.9,3.8
		c0,7.9,0,31.4,0,31.4c0,0.3,0,1.9,0,2.4c0,17.8,32.4,37,72.5,37s72.5-19.2,72.5-37c0-0.4,0-2,0-2.4c0,0,0-25,0-33.3
		C172.7,98.4,169.1,101.2,169.1,101.2z"/>
	<path class="st0" d="M107.9,126.8L192,75.1c4.3-2.6,4.3-6.8,0-9.4l-84.2-42.1c-4.3-2.6-11.2-2.6-15.5,0L8.2,65.7
		c-4.3,2.6-4.3,6.8,0,9.4l84.2,51.6C96.7,129.3,103.6,129.3,107.9,126.8z"/>
	<path class="st0" d="M189.6,152.8c-0.3-0.1-1-0.4-1-1.2c0-14.3,0-57,0-57s0-2.7-1.6-1.8c-1.2,0.7-4.5,2.5-5.5,3.5
		c-1.2,1.1-1,3.6-1,3.6s0,38.8,0,51.7c0,0.8-0.7,1.1-0.9,1.2c-2.9,1.7-4.8,4.8-4.8,8.5c0,5.4,4.4,9.9,9.9,9.9c5.4,0,9.9-4.4,9.9-9.9
		C194.5,157.7,192.5,154.5,189.6,152.8z"/>
</g>
</svg>
