<?xml version="1.0" encoding="utf-8"?>
<!-- Generator: Adobe Illustrator 21.1.0, SVG Export Plug-In . SVG Version: 6.00 Build 0)  -->
<svg version="1.1" id="Capa_1" xmlns="http://www.w3.org/2000/svg" xmlns:xlink="http://www.w3.org/1999/xlink" x="0px" y="0px"
	 viewBox="0 0 200 200" style="enable-background:new 0 0 200 200;" xml:space="preserve">
<style type="text/css">
	.st0{fill:#7A808D;}
</style>
<g>
	<path class="st0" d="M149.3,10.5c0-2.2-1.8-4.1-4.1-4.1H37c-2.2,0-4.1,1.8-4.1,4.1v17.2h116.5V10.5z"/>
	<polygon class="st0" points="16.2,64.5 165.4,64.5 165.3,64.3 164.8,63.3 150.1,32.3 32.2,32.3 16.1,64.3 16.3,64.3 	"/>
	<polygon class="st0" points="165.3,155.5 165.3,155.4 165.2,155.5 	"/>
	<g>
		<polygon class="st0" points="153.6,122.1 157.8,122.1 162.7,122.1 167.9,104.1 158.7,104.8 155.8,114.9 152.9,104.8 143.5,104.1 
			148.7,122.1 		"/>
		<path class="st0" d="M153,152.1c-0.3,0.3-0.6,0.7-0.7,1.1c-0.2,0.4-0.2,0.8-0.2,1.3c0,0.5,0.1,0.9,0.3,1.3c0.2,0.4,0.4,0.7,0.7,1
			c0.3,0.3,0.7,0.6,1.1,0.8c0.4,0.2,0.9,0.4,1.4,0.6l0.6-7.3c-0.7,0.1-1.3,0.2-1.8,0.4C153.7,151.5,153.3,151.8,153,152.1z"/>
		<path class="st0" d="M160.2,163.9c-0.3-0.3-0.7-0.5-1.2-0.7c-0.5-0.2-0.9-0.4-1.5-0.6l-0.6,8c1.4-0.2,2.5-0.6,3.2-1.4
			c0.7-0.8,1.1-1.8,1.1-3c0-0.5-0.1-1-0.3-1.3C160.8,164.5,160.6,164.2,160.2,163.9z"/>
		<path class="st0" d="M185.6,162.5c0,0,0-1.9-1-5.1c-0.4-1.4-0.9-2.7-1.4-3.9c-2.9-6.6-8.7-16.2-20.6-26.6h-6.6h-6.5
			c-10.1,8.8-15.9,17.2-19.1,23.5c-1.6,2.5-2.7,5.3-3.5,8.7c-0.6,2.2-0.4,3.3-0.4,3.3c-0.1,1.2-0.1,2.3-0.1,3.5
			c0,18.6,14.3,27.6,29.9,27.6c16.7,0,29.9-9,29.9-27.4C185.7,164.9,185.7,163.7,185.6,162.5z M164.4,168.7c-0.4,1-0.9,1.8-1.6,2.5
			c-0.7,0.7-1.6,1.3-2.6,1.8c-1,0.5-2.2,0.7-3.5,0.8l-0.2,2.9c0,0.3-0.1,0.5-0.3,0.7c-0.2,0.2-0.4,0.3-0.7,0.3H154l0.3-3.9
			c-1.4-0.2-2.7-0.5-3.9-1.1c-1.2-0.6-2.3-1.3-3.1-2.2l1.2-1.8c0.1-0.2,0.2-0.3,0.4-0.4c0.2-0.1,0.4-0.2,0.6-0.2
			c0.3,0,0.5,0.1,0.8,0.3c0.3,0.2,0.6,0.4,1,0.7c0.4,0.3,0.9,0.5,1.4,0.8c0.5,0.3,1.2,0.4,1.9,0.6l0.7-8.7c-0.8-0.3-1.7-0.5-2.5-0.9
			c-0.8-0.3-1.6-0.7-2.2-1.3c-0.7-0.5-1.2-1.2-1.6-2c-0.4-0.8-0.6-1.8-0.6-3c0-0.9,0.2-1.8,0.5-2.6c0.4-0.8,0.9-1.6,1.5-2.3
			c0.7-0.7,1.5-1.2,2.5-1.6c1-0.4,2.1-0.7,3.4-0.7l0.2-2.4c0-0.3,0.1-0.5,0.3-0.7c0.2-0.2,0.4-0.3,0.7-0.3h1.4l-0.3,3.5
			c1.3,0.2,2.3,0.5,3.3,1c0.9,0.5,1.7,1.1,2.4,1.8l-0.9,1.4c-0.3,0.4-0.6,0.6-1,0.6c-0.2,0-0.4-0.1-0.6-0.2
			c-0.2-0.1-0.5-0.3-0.9-0.5c-0.3-0.2-0.7-0.4-1.1-0.5c-0.4-0.2-0.9-0.3-1.4-0.4l-0.6,8c0.9,0.3,1.7,0.6,2.6,0.9
			c0.8,0.3,1.6,0.7,2.3,1.2c0.7,0.5,1.2,1.1,1.6,1.9c0.4,0.7,0.6,1.7,0.6,2.8C164.9,166.7,164.8,167.7,164.4,168.7z"/>
	</g>
	<path class="st0" d="M142.7,124.3c0-0.1-0.1-0.3-0.2-0.4l-5.2-18c-0.6-2-0.1-4.2,1.2-5.9c1.3-1.6,3.4-2.5,5.5-2.4l9.4,0.7
		c0.9,0.1,1.7,0.3,2.4,0.7c0.5-0.2,1-0.4,1.6-0.5V86.7l-0.1,0v-8.3c-2.5,1.5-5.2,2.2-8.3,2.2c-6.4,0-11.9-3.6-14.5-9
		c-2.7,5.3-8.2,9-14.6,9c-6.4,0-11.9-3.6-14.6-9c-2.7,5.3-8.3,9-14.6,9s-11.9-3.6-14.6-9c-2.7,5.3-8.3,9-14.6,9
		c-6.4,0-11.9-3.6-14.6-9c-2.7,5.3-8.3,9-14.7,9c-2.9,0-5.4-0.7-7.8-2v60.7h-4.5c-2.2,0-4.1,1.8-4.1,4.1v12h59.6h25.8h20.2
		c0.9-3,2-5.7,3.5-8.1C127.5,141.7,132.9,133.3,142.7,124.3z M74.2,130.8H40.9V89.5h33.3V130.8z"/>
</g>
</svg>
