<?xml version="1.0" encoding="utf-8"?>
<!-- Generator: Adobe Illustrator 21.1.0, SVG Export Plug-In . SVG Version: 6.00 Build 0)  -->
<svg version="1.1" id="Capa_1" xmlns="http://www.w3.org/2000/svg" xmlns:xlink="http://www.w3.org/1999/xlink" x="0px" y="0px"
	 viewBox="0 0 200 200" style="enable-background:new 0 0 200 200;" xml:space="preserve">
<style type="text/css">
	.st0{fill:#7A808D;}
</style>
<g>
	<path class="st0" d="M90.6,152.2H67.7v10.3H85C85.6,158.3,87.6,154.7,90.6,152.2z"/>
	<polygon class="st0" points="15.5,62.2 84.4,32.7 153.5,62.2 153.5,86.6 163.8,86.6 163.8,55.5 84.4,21.5 5.2,55.5 5.2,162.5 
		59.9,162.5 59.9,152.4 15.5,152.4 	"/>
	<path class="st0" d="M57.7,122H26.4c-1.3,0-2.2,1.1-2.2,2.2v17.6c0,1.3,1.1,2.2,2.2,2.2h31.2c1.3,0,2.2-1.1,2.2-2.2v-17.6
		C59.9,123.1,58.9,122,57.7,122z"/>
	<path class="st0" d="M100.1,144.1c1.3,0,2.2-1.1,2.2-2.2v-17.6c0-1.3-1.1-2.2-2.2-2.2H68.9c-1.3,0-2.2,1.1-2.2,2.2v17.6
		c0,1.3,1.1,2.2,2.2,2.2H100.1z"/>
	<path class="st0" d="M111.3,122c-1.3,0-2.2,1.1-2.2,2.2v17.6c0,1.3,1.1,2.2,2.2,2.2h20c1.3,0,2.2-1.1,2.2-2.2v-17.6
		c0-1.3-1.1-2.2-2.2-2.2L111.3,122z"/>
	<path class="st0" d="M57.7,91.7H26.4c-1.3,0-2.2,1.1-2.2,2.2v17.6c0,1.3,1.1,2.2,2.2,2.2h31.2c1.3,0,2.2-1.1,2.2-2.2V93.9
		C59.9,92.7,58.9,91.7,57.7,91.7z"/>
	<path class="st0" d="M100.1,91.7H68.9c-1.3,0-2.2,1.1-2.2,2.2v17.6c0,1.3,1.1,2.2,2.2,2.2h31.2c1.3,0,2.2-1.1,2.2-2.2V93.9
		C102.4,92.7,101.4,91.7,100.1,91.7z"/>
	<path class="st0" d="M102.4,63.7c0-1.3-1.1-2.2-2.2-2.2H68.9c-1.3,0-2.2,1.1-2.2,2.2v17.6c0,1.3,1.1,2.2,2.2,2.2h31.2
		c1.3,0,2.2-1.1,2.2-2.2V63.7H102.4z"/>
	<path class="st0" d="M191,152.7V122l-19.6-28.6h-30v58.7h-29.6c3,2.6,5.2,6.2,5.7,10.3h30.4c1.2-8.1,8-14.3,16.3-14.3
		s15.2,6.2,16.3,14.3h9.7l5.4-9.8H191V152.7z M150.3,121.2v-16.3H169l11,16.3C180.1,121.2,150.3,121.2,150.3,121.2z"/>
	<ellipse class="st0" cx="164.3" cy="164.8" rx="12.1" ry="12.1"/>
	<path class="st0" d="M101.2,152.7c-6.6,0-12.1,5.4-12.1,12.1c0,6.6,5.4,12.1,12.1,12.1c6.6,0,12.1-5.4,12.1-12.1
		C113.3,158.1,108,152.7,101.2,152.7z"/>
</g>
</svg>
