<?xml version="1.0" encoding="utf-8"?>
<!-- Generator: Adobe Illustrator 21.1.0, SVG Export Plug-In . SVG Version: 6.00 Build 0)  -->
<svg version="1.1" id="Capa_1" xmlns="http://www.w3.org/2000/svg" xmlns:xlink="http://www.w3.org/1999/xlink" x="0px" y="0px"
	 viewBox="0 0 200 200" style="enable-background:new 0 0 200 200;" xml:space="preserve">
<style type="text/css">
	.st0{fill:#7A808D;}
</style>
<g>
	<path class="st0" d="M161.5,127.9c-17.5,0-31.6,14.2-31.6,31.6s14.2,31.6,31.6,31.6s31.6-14.2,31.6-31.6S179,127.9,161.5,127.9z
		 M147.5,163.6c-2.2,0-4.1-1.8-4.1-4.1c0-2.2,1.8-4.1,4.1-4.1s4.1,1.8,4.1,4.1C151.6,161.8,149.7,163.6,147.5,163.6z M161.5,163.6
		c-2.2,0-4.1-1.8-4.1-4.1c0-2.2,1.8-4.1,4.1-4.1s4.1,1.8,4.1,4.1C165.6,161.8,163.8,163.6,161.5,163.6z M175.5,163.6
		c-2.2,0-4.1-1.8-4.1-4.1c0-2.2,1.8-4.1,4.1-4.1s4.1,1.8,4.1,4.1C179.6,161.8,177.8,163.6,175.5,163.6z"/>
	<path class="st0" d="M161.2,122.1l-0.1-34.2v-2.2c0-1.4-1-2-2.1-2.8L96.9,34.1l-63,49.8c-0.4,0.5-0.6,1.1-0.6,1.7v6.5v4.7v53.5
		h-4.3c-2.1,0-4,1.7-4,4v11.5h57.2l24.8,0.1l17.5,0c-0.3-2.1-0.5-4.2-0.5-6.3C124,139,140.7,122.2,161.2,122.1z M81.5,127.5H49.5
		l0,0v-25h31.9V127.5z"/>
	<path class="st0" d="M145.2,38.7c5.2,4.5,10.5,8.3,16.3,13.1c0-12.6,0-23.7,0-35.5c-5.9,0-11.6,0-17.5,0c0,6.9,0,13.4,0.1,20
		C144.1,37.1,144.6,38.2,145.2,38.7z"/>
	<path class="st0" d="M170.6,83.1h15.2c0.8,0,1.2-1,0.6-1.5c0,0,0,0,0,0c-0.4-0.3-0.7-0.6-1.1-1l-3.1-2.5l-47.9-39.1
		c-8.3-6.6-16.6-13.3-24.8-20.3L97,8.5L84.6,18.6L59.8,38.9L11.9,78l-3.1,2.5c-0.4,0.3-0.7,0.6-1.1,1c0,0,0,0,0,0
		c-0.6,0.5-0.2,1.5,0.6,1.5h15.2L97,25.7L170.6,83.1z"/>
</g>
</svg>
