<?xml version="1.0" encoding="utf-8"?>
<!-- Generator: Adobe Illustrator 21.1.0, SVG Export Plug-In . SVG Version: 6.00 Build 0)  -->
<svg version="1.1" id="Capa_1" xmlns="http://www.w3.org/2000/svg" xmlns:xlink="http://www.w3.org/1999/xlink" x="0px" y="0px"
	 viewBox="0 0 200 200" style="enable-background:new 0 0 200 200;" xml:space="preserve">
<style type="text/css">
	.st0{fill:#7A808D;}
</style>
<g>
	<path class="st0" d="M194.4,114.4l-4.3-28.6l-1.5-10c-0.2-1.5-1.1-2.9-2.3-3.8c-1.3-0.9-2.8-1.3-4.4-1.1l-12.2,1.9l-1.4-2.9
		l-7.1-15.3l-4.4-9.5c-1.3-2.9-4.8-4.2-7.7-2.9l-14.2,6.3l-22.7,10.1c2.6,3,4.9,6.3,6.9,9.7l20-8.9l3.1-1.4c1.7,1.7,4.5,3.1,8.7,2.3
		l1.1,2.4l5.6,12L145,76.5c-1.2-2.8-4-4.7-7.2-4.7c-4,0-7.4,3.1-7.8,7l-5.6,0.9c1.3,3.7,2.3,7.5,2.9,11.4c0.1,0.4,0.1,0.7,0.1,1.1
		l11-2.8l26.9-4.1l4.1-0.6c0.9,2.8,3.3,6.3,9.7,7.9l0.1,0.7l1.4,9.2l0.9,5.6l0.5,3.5c-5.9,3-7.1,8.4-7.2,11.6L173,123l-3.8,0.1
		l-45.5,1.3c-1.6,4.2-3.7,8.2-6.1,11.9l12.7-0.4c-0.2,0.7-0.3,1.4-0.3,2.1c0,4.3,3.5,7.8,7.8,7.8c4.3,0,7.8-3.5,7.8-7.8
		c0-0.9-0.2-1.8-0.4-2.6l27.8-0.8v7.3v1.9c-5.4,1.9-7.2,5.7-7.7,8.7l-4.6,0l-57.3-0.5c-6.5,5.2-13.9,9.1-22.1,11.5l82.1,0.6
		l15.4,0.1c0,0,0,0,0,0c1.5,0,3-0.6,4.1-1.7c1.1-1.1,1.7-2.6,1.7-4.2v-11.4v-12.2v-0.6l2.9-0.1c4.1-1.6,7.3-5,8.4-9.4L194.4,114.4z"
		/>
	<path class="st0" d="M121.2,101c0-32.4-26.2-58.6-58.6-58.6C30.3,42.4,4,68.7,4,101s26.2,58.6,58.6,58.6
		C95,159.6,121.2,133.4,121.2,101z M62.6,149.9c-27,0-48.8-21.9-48.8-48.8s21.9-48.8,48.8-48.8s48.8,21.9,48.8,48.8
		S89.6,149.9,62.6,149.9z"/>
	<path class="st0" d="M138.7,112.5c1.5,1.6,3.6,2.5,5.9,2.5c2.4,0,4.6-1,6-2.7c1.3-1.4,2.1-3.3,2.1-5.4c0-1.2-0.3-2.4-0.8-3.5
		c-0.6-1.2-1.5-2.3-2.6-3.1c-1.3-1-3-1.6-4.8-1.6c-3.2,0-6,1.9-7.3,4.6l-0.9,0.2l0.8,0c-0.4,1-0.7,2.1-0.7,3.3
		C136.5,109.1,137.4,111,138.7,112.5z"/>
	<path class="st0" d="M64.3,96.1V75.5l-3.9-1.8v22.1c-3.2,0.7-5.7,3.6-5.7,6.8c0,3.9,3.2,7.1,7.1,7.1c3.2,0,5.7-2.1,6.8-5h3.9
		l8.2-0.4l1.1-3.6l-12.8,0.4C68.2,98.6,66.4,96.8,64.3,96.1z"/>
	<rect x="60.9" y="56.1" class="st0" width="3.5" height="7.8"/>
	<rect x="18" y="98.9" class="st0" width="7.8" height="3.5"/>
	<rect x="99.4" y="98.9" class="st0" width="7.8" height="3.5"/>
	<rect x="59.5" y="137.5" class="st0" width="3.5" height="7.8"/>
</g>
</svg>
