<?xml version="1.0" encoding="utf-8"?>
<!-- Generator: Adobe Illustrator 21.1.0, SVG Export Plug-In . SVG Version: 6.00 Build 0)  -->
<svg version="1.1" id="Capa_1" xmlns="http://www.w3.org/2000/svg" xmlns:xlink="http://www.w3.org/1999/xlink" x="0px" y="0px"
	 viewBox="0 0 200 200" style="enable-background:new 0 0 200 200;" xml:space="preserve">
<style type="text/css">
	.st0{fill:#7A808D;}
</style>
<g>
	<path class="st0" d="M107.2,81.7c6.2-19.4,20.9-35.1,39.8-42.5c0.3-0.1,0.6-0.2,0.9-0.3c-1.1-1.2-1.7-2.7-1.7-4.4
		c0-1.4,0.4-2.5,1.1-3.6c-1.9-0.5-3.8-1.1-5.7-1.5c-4.6-0.9-9.3-1.5-14.3-1.5c-28,0-52.2,17-62.5,41.3c4.2-1.9,8.8-2.8,13.8-2.8
		C90.5,66.4,101.1,72.5,107.2,81.7z"/>
	<path class="st0" d="M163.8,38.4c-1.5-0.9-3-1.9-4.6-2.7c-0.6,2.8-2.9,4.9-5.9,5.1c0.1,0.2,0.1,0.3,0.2,0.5c0.7,1.7,1.4,3.5,2,5.3
		c5.9,18.1,3.8,36.9-4.3,52.5c2.5-0.6,5.1-0.8,7.8-0.8c14.6,0,27.1,9.1,32,22.1c2.9-7.6,4.5-15.8,4.5-24.4
		C195.4,71.7,182.8,50.5,163.8,38.4z"/>
	<path class="st0" d="M115.3,142l21.6-53.7c3.5,2.2,6.6,5,9,8.4c7.5-15.3,9.2-33.4,3.6-50.8c-0.2-0.7-0.5-1.6-0.8-2.3
		c-16.8,7.8-29.8,22.2-35.8,39.9c1.8-0.3,3.7-0.4,5.7-0.4c2.3,0,4.6,0.2,6.8,0.7L102,141.6c-0.1,0-0.3,0-0.4,0
		c-28,0-54.2,8.2-76.1,22.4c-2.1,1.4-4.1,2.7-6.1,4.2c1.1,0.5,2.1,1.1,3.2,1.8c10.5,7.1,24.2,7.1,34.7,0c8.3-5.6,19-5.6,27.3,0
		c10.5,7.1,24.2,7.1,34.7,0c8.3-5.6,19-5.6,27.3,0c5.3,3.6,11.3,5.4,17.3,5.4s12.1-1.8,17.3-5.4c0.9-0.6,1.9-1.2,2.9-1.7
		c-2-1.5-4-2.8-6.1-4.1C159.6,151.8,138.2,144.2,115.3,142z"/>
	<path class="st0" d="M34.4,121.7c9.3,0,17-7.6,17-17s-7.6-17-17-17c-9.3,0-17,7.6-17,17S25.1,121.7,34.4,121.7z"/>
	<path class="st0" d="M34.4,85.4c1.5,0,2.6-1.2,2.6-2.6v-5.3c0-1.5-1.2-2.6-2.6-2.6c-1.5,0-2.6,1.2-2.6,2.6v5.3
		C31.8,84.2,33,85.4,34.4,85.4z"/>
	<path class="st0" d="M50,91.9c0.6,0,1.4-0.2,1.9-0.7l3.8-3.8c1.1-1.1,1.1-2.7,0-3.7c-1.1-1.1-2.7-1.1-3.7,0l-3.8,3.8
		c-1.1,1.1-1.1,2.7,0,3.7C48.6,91.6,49.3,91.9,50,91.9z"/>
	<path class="st0" d="M53.7,104.8c0,1.5,1.2,2.6,2.6,2.6h5.3c1.5,0,2.6-1.2,2.6-2.6s-1.2-2.6-2.6-2.6h-5.3
		C55,102.2,53.7,103.3,53.7,104.8z"/>
	<path class="st0" d="M48.1,118.5c-1.1,1.1-1.1,2.7,0,3.7l3.8,3.8c0.5,0.5,1.2,0.7,1.9,0.7c0.7,0,1.4-0.2,1.9-0.7
		c1.1-1.1,1.1-2.7,0-3.7l-3.8-3.8C50.8,117.5,49.1,117.5,48.1,118.5z"/>
	<path class="st0" d="M31.8,126.9v5.3c0,1.5,1.2,2.6,2.6,2.6c1.5,0,2.6-1.2,2.6-2.6v-5.3c0-1.5-1.2-2.6-2.6-2.6
		C33,124.2,31.8,125.4,31.8,126.9z"/>
	<path class="st0" d="M20.7,118.5c-1.1-1.1-2.7-1.1-3.7,0l-3.8,3.8c-1.1,1.1-1.1,2.7,0,3.7c0.5,0.5,1.2,0.7,1.9,0.7
		c0.6,0,1.4-0.2,1.9-0.7l3.8-3.8C21.7,121.2,21.7,119.5,20.7,118.5z"/>
	<path class="st0" d="M15,104.8c0-1.5-1.2-2.6-2.6-2.6H7.1c-1.5,0-2.6,1.2-2.6,2.6s1.2,2.6,2.6,2.6h5.3
		C13.8,107.4,15,106.3,15,104.8z"/>
	<path class="st0" d="M17,91.1c0.5,0.5,1.2,0.7,1.9,0.7c0.6,0,1.4-0.2,1.9-0.7c1.1-1.1,1.1-2.7,0-3.7L17,83.6
		c-1.1-1.1-2.7-1.1-3.7,0c-1.1,1.1-1.1,2.7,0,3.7L17,91.1z"/>
</g>
</svg>
