<?xml version="1.0" encoding="utf-8"?>
<!-- Generator: Adobe Illustrator 24.2.0, SVG Export Plug-In . SVG Version: 6.00 Build 0)  -->
<svg version="1.1" id="Capa_1" xmlns="http://www.w3.org/2000/svg" xmlns:xlink="http://www.w3.org/1999/xlink" x="0px" y="0px"
	 viewBox="0 0 133.2 136.9" style="enable-background:new 0 0 133.2 136.9;" xml:space="preserve">
<style type="text/css">
	.st0{fill:#EEEFF2;}
	.st1{fill:#C3C3C3;}
	.st2{fill:#87C0CD;}
	.st3{fill:#FFFFFF;}
</style>
<g>
	<g id="Grupo_10386_1_" transform="translate(-4329.067 -3500.694)">
		<g id="Grupo_10384_1_">
			<path id="Trazado_89_3_" class="st0" d="M4426.6,3531.2l-30-30h-66.4v124.1h96.3V3531.2z"/>
			<path id="Trazado_90_3_" class="st1" d="M4396.6,3501.2v30h30L4396.6,3501.2z"/>
		</g>
		<g id="Grupo_10385_1_">
			<path id="Trazado_91_3_" class="st1" d="M4349.5,3535.4h19.3c1.2-0.1,2.1-1.2,1.9-2.3c-0.1-1-0.9-1.8-1.9-1.9h-19.3
				c-1.2-0.1-2.2,0.8-2.3,1.9s0.8,2.2,1.9,2.3C4349.2,3535.4,4349.4,3535.4,4349.5,3535.4z"/>
			<path id="Trazado_92_3_" class="st1" d="M4385.9,3578.2h-36.4c-1.2,0-2.1,1-2.1,2.2c0,1.2,1,2.1,2.1,2.1h36.4
				c1.2,0,2.2-1,2.2-2.1C4388,3579.1,4387.1,3578.2,4385.9,3578.2z"/>
			<path id="Trazado_93_3_" class="st1" d="M4407.2,3563.3h-14.9c-1.2-0.1-2.2,0.8-2.3,1.9c-0.1,1.2,0.8,2.2,1.9,2.3
				c0.1,0,0.3,0,0.4,0h14.9c1.2,0.1,2.2-0.8,2.3-1.9s-0.8-2.2-1.9-2.3C4407.5,3563.3,4407.4,3563.3,4407.2,3563.3z"/>
			<path id="Trazado_94_3_" class="st1" d="M4349.5,3552.6h10.7c1.2-0.1,2.1-1.2,1.9-2.3c-0.1-1-0.9-1.8-1.9-1.9h-10.7
				c-1.2-0.1-2.2,0.8-2.3,1.9s0.8,2.2,1.9,2.3C4349.2,3552.6,4349.4,3552.6,4349.5,3552.6z"/>
			<path id="Trazado_95_3_" class="st1" d="M4381.6,3552.6h15c1.2-0.1,2.1-1.2,1.9-2.3c-0.1-1-0.9-1.8-1.9-1.9h-15
				c-1.2-0.1-2.2,0.8-2.3,1.9c-0.1,1.2,0.8,2.2,1.9,2.3C4381.3,3552.6,4381.5,3552.6,4381.6,3552.6z"/>
			<path id="Trazado_96_3_" class="st1" d="M4368.8,3550.4c0,1.2,0.9,2.2,2.1,2.2c1.2,0,2.2-0.9,2.2-2.1c0-1.2-0.9-2.2-2.1-2.2
				c-0.3,0-0.6,0-0.9,0.2C4369.3,3548.8,4368.8,3549.6,4368.8,3550.4z"/>
			<path id="Trazado_97_3_" class="st1" d="M4360.2,3563.3c-1.2-0.1-2.2,0.8-2.3,1.9s0.8,2.2,1.9,2.3c0.1,0,0.3,0,0.4,0h21.5
				c1.2,0.1,2.2-0.8,2.3-1.9c0.1-1.2-0.8-2.2-1.9-2.3c-0.1,0-0.3,0-0.4,0H4360.2z"/>
			<path id="Trazado_98_3_" class="st1" d="M4349.5,3567.5c0.6,0,1.1-0.2,1.5-0.6c0.8-0.9,0.8-2.2,0-3c-0.9-0.8-2.2-0.8-3,0
				c-0.4,0.4-0.6,1-0.6,1.5C4347.4,3566.6,4348.3,3567.5,4349.5,3567.5z"/>
			<path id="Trazado_99_3_" class="st1" d="M4407.2,3593.2h-14.9c-1.2-0.1-2.2,0.8-2.3,1.9c-0.1,1.2,0.8,2.2,1.9,2.3
				c0.1,0,0.3,0,0.4,0h14.9c1.2,0.1,2.2-0.8,2.3-1.9s-0.8-2.2-1.9-2.3C4407.5,3593.2,4407.4,3593.2,4407.2,3593.2z"/>
			<path id="Trazado_100_3_" class="st1" d="M4381.6,3593.2h-21.5c-1.2-0.1-2.2,0.8-2.3,1.9c-0.1,1.2,0.8,2.2,1.9,2.3
				c0.1,0,0.3,0,0.4,0h21.5c1.2,0.1,2.2-0.8,2.3-1.9s-0.8-2.2-1.9-2.3C4381.9,3593.2,4381.7,3593.2,4381.6,3593.2z"/>
			<path id="Trazado_101_3_" class="st1" d="M4348,3593.8c-0.8,0.8-0.8,2.2,0,3c0.4,0.4,1,0.6,1.5,0.6c0.6,0,1.1-0.2,1.5-0.6
				c0.4-0.4,0.7-0.9,0.7-1.5c0-0.6-0.2-1.1-0.6-1.5C4350.2,3593,4348.9,3593,4348,3593.8L4348,3593.8z"/>
			<path id="Trazado_102_3_" class="st1" d="M4407.2,3552.6c1.2,0,2.1-0.9,2.1-2.1c0-0.6-0.2-1.1-0.6-1.5c-0.8-0.8-2.2-0.8-3,0
				c-0.8,0.9-0.7,2.2,0.2,3C4406.3,3552.3,4406.7,3552.5,4407.2,3552.6L4407.2,3552.6z"/>
			<path id="Trazado_103_3_" class="st1" d="M4398.1,3581.9c0.8-0.9,0.8-2.2,0-3c-0.8-0.8-2.2-0.8-3,0c-0.8,0.8-0.8,2.2,0,3
				c0.4,0.4,1,0.6,1.5,0.6C4397.2,3582.5,4397.7,3582.3,4398.1,3581.9z"/>
			<path id="Trazado_104_3_" class="st1" d="M4405.8,3578.9c-0.9,0.8-1,2.2-0.2,3c0.8,0.9,2.2,1,3,0.2c0.9-0.8,1-2.2,0.2-3
				c0,0,0-0.1-0.1-0.1C4407.9,3578.1,4406.6,3578.1,4405.8,3578.9z"/>
		</g>
	</g>
	<g>
		<path id="Trazado_145_1_" class="st2" d="M127.9,89.5c-8.7-15-27.8-20.1-42.8-11.4S65,105.9,73.7,120.9c2.7,4.7,6.7,8.7,11.4,11.4
			c9.7,5.6,21.7,5.6,31.4,0c4.7-2.7,8.6-6.7,11.4-11.4C133.5,111.1,133.5,99.2,127.9,89.5L127.9,89.5z"/>
		<path id="Trazado_146_1_" class="st3" d="M101.7,90c-0.3-0.2-0.6-0.4-0.9-0.4c-0.3,0-0.7,0.1-0.9,0.4l-13,13
			c-0.2,0.3-0.4,0.6-0.4,1c0,0.4,0.1,0.7,0.4,0.9c0.2,0.2,0.6,0.4,0.9,0.4h7.8v14.3c0,0.4,0.1,0.7,0.4,0.9c0.3,0.2,0.6,0.4,0.9,0.4
			h7.8c0.3,0,0.7-0.1,0.9-0.4c0.3-0.2,0.4-0.6,0.4-0.9v-14.3h7.8c0.6,0,1-0.4,1.2-1c0.2-0.5,0.1-1.1-0.3-1.4L101.7,90z"/>
	</g>
</g>
</svg>
