<svg id="Layer_2" data-name="Layer 2" xmlns="http://www.w3.org/2000/svg" xmlns:xlink="http://www.w3.org/1999/xlink" width="199.417" height="111.167" viewBox="0 0 199.417 111.167">
  <defs>
    <clipPath id="clip-path">
      <rect id="Rectángulo_19" data-name="Rectángulo 19" width="47.924" height="57.362" rx="1.63" fill="none"/>
    </clipPath>
  </defs>
  <g id="TITULAR">
    <rect id="Rectángulo_14" data-name="Rectángulo 14" width="161.88" height="98.529" rx="3.94" fill="#eeeff2"/>
    <rect id="Rectángulo_15" data-name="Rectángulo 15" width="70.215" height="7.508" rx="2.1" transform="translate(75.112 24.042)" fill="#c3c3c3"/>
    <rect id="Rectángulo_16" data-name="Rectángulo 16" width="70.215" height="7.508" rx="2.1" transform="translate(75.112 41.757)" fill="#c3c3c3"/>
    <rect id="Rectángulo_17" data-name="Rectángulo 17" width="41.239" height="7.508" rx="1.61" transform="translate(75.112 57.523)" fill="#c3c3c3"/>
    <rect id="Rectángulo_18" data-name="Rectángulo 18" width="47.924" height="57.362" rx="1.63" transform="translate(14.39 20.95)" fill="#c3c3c3"/>
    <g id="Grupo_40" data-name="Grupo 40" transform="translate(14.39 20.95)" clip-path="url(#clip-path)">
      <path id="Trazado_63" data-name="Trazado 63" d="M46.047,58.329l-8.312-4.254a1.662,1.662,0,0,1-.93-1.5V50.035a13.925,13.925,0,0,0,7.9-9.867,4.433,4.433,0,0,0,3.128-4.2V33.732a4.415,4.415,0,0,0-2.36-3.861c-.965-8.294-6.453-11.637-15.266-11.637H28.994a13.192,13.192,0,0,1-8.544-1.966,10.725,10.725,0,0,1-2.52-2.2.447.447,0,0,0-.787.322,14.944,14.944,0,0,0,.411,2.663c.733,3.575.3,3.11-1.108,6.578a22.416,22.416,0,0,0-1.537,6.274,4.4,4.4,0,0,0-2.36,3.825v2.2a4.433,4.433,0,0,0,3.128,4.2A14.014,14.014,0,0,0,23.578,50v2.52a1.68,1.68,0,0,1-.947,1.519l-8.509,4.2a7.15,7.15,0,0,0-3.772,6.346V67.5c0,2.5,8.938,3.718,19.842,3.718S50.033,70,50.033,67.5V64.8A7.15,7.15,0,0,0,46.047,58.329Z" transform="translate(-6.239 -9.994)" fill="#eeeff2"/>
      <path id="Trazado_64" data-name="Trazado 64" d="M123.409,8.529A2.109,2.109,0,1,0,121.3,6.419,2.109,2.109,0,0,0,123.409,8.529Z" transform="translate(81.139 -17.556)" fill="#eeeff2"/>
      <path id="Trazado_65" data-name="Trazado 65" d="M123.409,8.529A2.109,2.109,0,1,0,121.3,6.419,2.109,2.109,0,0,0,123.409,8.529Z" transform="translate(81.139 -17.556)" fill="#eeeff2"/>
      <path id="Trazado_66" data-name="Trazado 66" d="M69.339,8.709A2.109,2.109,0,1,0,67.23,6.6a2.109,2.109,0,0,0,2.109,2.109Z" transform="translate(38.557 -17.414)" fill="#eeeff2"/>
    </g>
    <rect id="Rectángulo_20" data-name="Rectángulo 20" width="35.304" height="2.181" transform="translate(75.112 86.123)" fill="#c3c3c3"/>
    <rect id="Rectángulo_21" data-name="Rectángulo 21" width="15.659" height="2.181" transform="translate(113.705 86.123)" fill="#c3c3c3"/>
    <path id="Trazado_67" data-name="Trazado 67" d="M134.923,42.777A31.067,31.067,0,0,0,123.536,31.39a31.425,31.425,0,0,0-31.389,0A31.067,31.067,0,0,0,80.76,42.777a31.461,31.461,0,0,0,0,31.407A31.067,31.067,0,0,0,92.147,85.571a31.532,31.532,0,0,0,31.389,0,31.067,31.067,0,0,0,11.387-11.387A31.461,31.461,0,0,0,134.923,42.777Z" transform="translate(60.295 21.414)" fill="#87c0cd"/>
    <path id="Trazado_68" data-name="Trazado 68" d="M101.337,36.3a1.341,1.341,0,0,0-1.788,0l-13,13A1.43,1.43,0,0,0,86,50.333a1.323,1.323,0,0,0,.357.947,1.287,1.287,0,0,0,.947.358h7.812v14.3a1.269,1.269,0,0,0,.375.947,1.287,1.287,0,0,0,.93.358h7.829a1.3,1.3,0,0,0,.93-.358,1.269,1.269,0,0,0,.375-.947v-14.3h7.812a1.2,1.2,0,0,0,1.216-.8,1.233,1.233,0,0,0-.268-1.43Z" transform="translate(67.728 28.319)" fill="#fff"/>
  </g>
</svg>
