<svg id="Layer_2" data-name="Layer 2" xmlns="http://www.w3.org/2000/svg" width="199.408" height="110.81" viewBox="0 0 199.408 110.81">
  <g id="TITULAR">
    <g id="Layer_2-2" data-name="Layer 2">
      <g id="TITULAR-2" data-name="TITULAR">
        <rect id="Rectángulo_51" data-name="Rectángulo 51" width="161.88" height="98.529" rx="3.94" fill="#eeeff2"/>
        <rect id="Rectángulo_52" data-name="Rectángulo 52" width="43.509" height="52.089" rx="1.48" transform="translate(6.56 8.527)" fill="#e9e9e9"/>
        <path id="Trazado_127" data-name="Trazado 127" d="M22.139,24.25V21.212a2.181,2.181,0,0,0-4.344-.322.965.965,0,0,0,0,.322v2.753A13.424,13.424,0,0,1,14.363,32.9l-3.075,3.378a.7.7,0,0,0,1.037.93h0L15.4,33.849a14.819,14.819,0,0,0,3.772-9.885V21.212a.8.8,0,0,1,1.591,0V24.25a16.392,16.392,0,0,1-4.254,11.011l-2.985,3.253a.679.679,0,0,0,.465,1.18.733.733,0,0,0,.518-.232l2.967-3.271A17.875,17.875,0,0,0,22.139,24.25Z" transform="translate(8.768 14.95)" fill="#c3c3c3"/>
        <path id="Trazado_128" data-name="Trazado 128" d="M25.776,22.606A5.188,5.188,0,0,0,15.409,22.2v3.235A10.368,10.368,0,0,1,12.727,32.4l-2.163,2.306a.7.7,0,0,0,.983.983h0l2.163-2.413a11.833,11.833,0,0,0,3.039-7.865V22.606a3.754,3.754,0,0,1,7.508,0v3.039a19.305,19.305,0,0,1-5.023,13l-2.4,2.806a.7.7,0,0,0,0,.983h0a.679.679,0,0,0,.965,0l2.52-2.771A20.682,20.682,0,0,0,25.776,25.77Z" transform="translate(8.187 13.556)" fill="#c3c3c3"/>
        <path id="Trazado_129" data-name="Trazado 129" d="M29.543,23.838a8.115,8.115,0,0,0-16.213-.608v3.361a7.455,7.455,0,0,1-1.914,4.988L9.469,33.706a.7.7,0,0,0,0,.983.679.679,0,0,0,.983,0h0l1.913-2.163a8.938,8.938,0,0,0,2.252-5.917V23.838a6.739,6.739,0,1,1,13.46,0v3.039a22.2,22.2,0,0,1-5.792,14.98l-.661.822a.7.7,0,0,0,0,.983.751.751,0,0,0,.465.179.644.644,0,0,0,.518-.232l.7-.751A23.542,23.542,0,0,0,29.49,27V23.838Z" transform="translate(7.298 12.324)" fill="#c3c3c3"/>
        <path id="Trazado_130" data-name="Trazado 130" d="M9.88,25.066a.7.7,0,0,0,.7.7.715.715,0,0,0,.7-.7,9.688,9.688,0,0,1,8.294-9.581.715.715,0,0,0,.679-.715.679.679,0,0,0-.715-.679h-.161A11.065,11.065,0,0,0,9.88,25.066Z" transform="translate(7.781 11.096)" fill="#c3c3c3"/>
        <path id="Trazado_131" data-name="Trazado 131" d="M12.66,22.077a.7.7,0,0,0-.679-.7h0a.679.679,0,0,0-.7.7,4.487,4.487,0,0,1-1.126,2.985L8.37,26.993a.679.679,0,0,0,.465,1.18.7.7,0,0,0,.518-.232l1.788-1.931a5.97,5.97,0,0,0,1.519-3.933Z" transform="translate(6.431 16.837)" fill="#c3c3c3"/>
        <path id="Trazado_132" data-name="Trazado 132" d="M22.309,25.238a.715.715,0,0,0-.84.483h0a23.827,23.827,0,0,1-.947,2.9.7.7,0,0,0,.375.894h0a.679.679,0,0,0,.268,0,.715.715,0,0,0,.644-.429,30.531,30.531,0,0,0,1-3.057.733.733,0,0,0-.5-.787Z" transform="translate(16.124 19.862)" fill="#c3c3c3"/>
        <path id="Trazado_133" data-name="Trazado 133" d="M20.732,15.706a.715.715,0,0,0-.983,0,.7.7,0,0,0,0,.983,9.724,9.724,0,0,1,3.235,7.15v3.039a28.2,28.2,0,0,1-.214,3.463.679.679,0,0,0,.589.774h.107a.679.679,0,0,0,.679-.59,27.564,27.564,0,0,0,.25-3.575V23.911a11.136,11.136,0,0,0-3.664-8.2Z" transform="translate(15.394 12.215)" fill="#c3c3c3"/>
        <path id="Trazado_134" data-name="Trazado 134" d="M19.834,16.32a.912.912,0,0,0,.3,0,.679.679,0,0,0,.787-.608.751.751,0,0,0-.393-.644A10.421,10.421,0,0,0,17.35,14.1a.7.7,0,0,0-.787.572h0a.7.7,0,0,0,.59.787h0a8.634,8.634,0,0,1,2.681.858Z" transform="translate(13.039 11.101)" fill="#c3c3c3"/>
        <path id="Trazado_135" data-name="Trazado 135" d="M16.77,12.381h-.787a.733.733,0,1,0,.107,1.448h.7a12.638,12.638,0,0,1,12.62,12.513V29.38a.679.679,0,0,0,.7.7.7.7,0,0,0,.7-.7h0V26.341A14.05,14.05,0,0,0,16.77,12.381Z" transform="translate(11.974 9.749)" fill="#c3c3c3"/>
        <path id="Trazado_136" data-name="Trazado 136" d="M12.136,15.907a.679.679,0,0,0,.393-.125A13.067,13.067,0,0,1,16.3,13.995a.7.7,0,0,0-.375-1.323,13.728,13.728,0,0,0-4.2,1.984.679.679,0,0,0-.143.965.661.661,0,0,0,.554.286Z" transform="translate(9.011 9.976)" fill="#c3c3c3"/>
        <path id="Trazado_137" data-name="Trazado 137" d="M10.231,27.336V24.583a12.62,12.62,0,0,1,3.449-8.669.7.7,0,1,0-.965-1.019h0a13.943,13.943,0,0,0-3.825,9.617v2.753A1.555,1.555,0,0,1,8.5,28.283l-.858.947a.7.7,0,0,0,0,.983h0a.787.787,0,0,0,.465.179.7.7,0,0,0,.518-.232l.858-.965a2.9,2.9,0,0,0,.751-1.859Z" transform="translate(5.857 11.579)" fill="#c3c3c3"/>
        <path id="Trazado_138" data-name="Trazado 138" d="M27.248,19.951a16.785,16.785,0,0,0-3.664-6.042.679.679,0,0,0-.965,0h0a.679.679,0,0,0,0,.965,15.945,15.945,0,0,1,3.361,5.613.7.7,0,0,0,.661.483h.215a.679.679,0,0,0,.447-.876.232.232,0,0,0-.054-.143Z" transform="translate(17.655 10.795)" fill="#c3c3c3"/>
        <path id="Trazado_139" data-name="Trazado 139" d="M19.527,11.238a.7.7,0,0,0-.465,1.3A15.283,15.283,0,0,1,23.334,14.8a.733.733,0,0,0,.429.143.7.7,0,0,0,.411-1.251h0a16.552,16.552,0,0,0-4.648-2.449Z" transform="translate(14.705 8.836)" fill="#c3c3c3"/>
        <path id="Trazado_140" data-name="Trazado 140" d="M12.807,16.424a15.605,15.605,0,0,1,10.725-4.344,13.3,13.3,0,0,1,2.234.179.7.7,0,0,0,.787-.59h0a.661.661,0,0,0-.572-.769h0a18.572,18.572,0,0,0-2.449-.161A17,17,0,0,0,6.55,26.97a.679.679,0,0,0,.661.716h.143a.7.7,0,0,0,.7-.661,15.462,15.462,0,0,1,4.755-10.6Z" transform="translate(5.158 8.458)" fill="#c3c3c3"/>
        <path id="Trazado_141" data-name="Trazado 141" d="M18.349,9.06a20.08,20.08,0,0,0-4.615.537.7.7,0,1,0,.325,1.358A18.447,18.447,0,0,1,31.72,16.1a.712.712,0,0,0,1,.018.679.679,0,0,0,0-.965,19.877,19.877,0,0,0-14.372-6.1Z" transform="translate(10.394 7.135)" fill="#c3c3c3"/>
        <path id="Trazado_142" data-name="Trazado 142" d="M7.452,17.07a.787.787,0,0,0,.447.143.733.733,0,0,0,.536-.25,18.626,18.626,0,0,1,7.543-5.738.733.733,0,0,0,.375-.912.715.715,0,0,0-.912-.393h0a20.4,20.4,0,0,0-8.1,6.167A.715.715,0,0,0,7.452,17.07Z" transform="translate(5.668 7.776)" fill="#c3c3c3"/>
        <path id="Trazado_143" data-name="Trazado 143" d="M11.019,10.972a.626.626,0,0,0,.3,0A21.111,21.111,0,0,1,25.624,9.4a.715.715,0,0,0,.894-.429.7.7,0,0,0-.447-.894h-.125a23.363,23.363,0,0,0-5.363-.626A22.594,22.594,0,0,0,10.626,9.7a.7.7,0,0,0-.3.93.679.679,0,0,0,.7.34Z" transform="translate(8.072 5.867)" fill="#c3c3c3"/>
        <path id="Trazado_144" data-name="Trazado 144" d="M20.732,9.629c.715.3,1.43.626,2.109.983a.661.661,0,0,0,.322,0,.7.7,0,0,0,.608-.375.679.679,0,0,0-.286-.93C22.752,8.914,22,8.574,21.25,8.253a.7.7,0,0,0-.912.393.679.679,0,0,0,.393.983Z" transform="translate(15.948 6.459)" fill="#c3c3c3"/>
        <rect id="Rectángulo_53" data-name="Rectángulo 53" width="25.312" height="23.166" transform="translate(54.216 12.262)" fill="none" stroke="#c3c3c3" stroke-miterlimit="10" stroke-width="0.62"/>
        <rect id="Rectángulo_54" data-name="Rectángulo 54" width="25.312" height="23.166" transform="translate(79.528 12.262)" fill="none" stroke="#c3c3c3" stroke-miterlimit="10" stroke-width="0.62"/>
        <rect id="Rectángulo_55" data-name="Rectángulo 55" width="25.312" height="23.166" transform="translate(104.839 12.262)" fill="none" stroke="#c3c3c3" stroke-miterlimit="10" stroke-width="0.62"/>
        <rect id="Rectángulo_56" data-name="Rectángulo 56" width="25.312" height="23.166" transform="translate(130.151 12.262)" fill="none" stroke="#c3c3c3" stroke-miterlimit="10" stroke-width="0.62"/>
        <rect id="Rectángulo_57" data-name="Rectángulo 57" width="25.312" height="23.166" transform="translate(54.216 35.34)" fill="none" stroke="#c3c3c3" stroke-miterlimit="10" stroke-width="0.62"/>
        <rect id="Rectángulo_58" data-name="Rectángulo 58" width="25.312" height="23.166" transform="translate(79.528 35.34)" fill="none" stroke="#c3c3c3" stroke-miterlimit="10" stroke-width="0.62"/>
        <rect id="Rectángulo_59" data-name="Rectángulo 59" width="25.312" height="23.166" transform="translate(104.839 35.34)" fill="none" stroke="#c3c3c3" stroke-miterlimit="10" stroke-width="0.62"/>
        <rect id="Rectángulo_60" data-name="Rectángulo 60" width="25.312" height="23.166" transform="translate(130.151 35.34)" fill="none" stroke="#c3c3c3" stroke-miterlimit="10" stroke-width="0.62"/>
        <rect id="Rectángulo_61" data-name="Rectángulo 61" width="147.633" height="1.09" transform="translate(7.847 70.608)" fill="#c3c3c3"/>
        <rect id="Rectángulo_62" data-name="Rectángulo 62" width="147.633" height="1.09" transform="translate(7.847 78.455)" fill="#c3c3c3"/>
        <rect id="Rectángulo_63" data-name="Rectángulo 63" width="147.633" height="1.09" transform="translate(7.847 86.32)" fill="#c3c3c3"/>
      </g>
    </g>
    <path id="Trazado_145" data-name="Trazado 145" d="M134.94,42.577A31.313,31.313,0,1,0,92.147,85.37a31.568,31.568,0,0,0,31.407,0,31.139,31.139,0,0,0,11.369-11.387,31.514,31.514,0,0,0,0-31.407Z" transform="translate(60.295 21.256)" fill="#87c0cd"/>
    <path id="Trazado_146" data-name="Trazado 146" d="M101.324,36.165a1.484,1.484,0,0,0-.947-.375,1.412,1.412,0,0,0-.93.375l-13,13a1.519,1.519,0,0,0-.411.965,1.269,1.269,0,0,0,.375.947,1.287,1.287,0,0,0,.93.358h7.829v14.3a1.251,1.251,0,0,0,.357.947,1.3,1.3,0,0,0,.93.358h7.829a1.287,1.287,0,0,0,.93-.358,1.269,1.269,0,0,0,.375-.947v-14.3h7.812a1.216,1.216,0,0,0,1.162-.965,1.233,1.233,0,0,0-.286-1.43Z" transform="translate(67.759 28.186)" fill="#fff"/>
  </g>
</svg>
