<svg xmlns="http://www.w3.org/2000/svg" viewBox="0 0 120.9 87.92"><defs><style>.cls-1{fill:#f7323f;stroke:#fff;stroke-miterlimit:10;}</style></defs><title>Recurso 34</title><g id="Capa_2" data-name="Capa 2"><g id="home"><path class="cls-1" d="M32.31,16.88H19.13a2.9,2.9,0,0,1,0-5.8H32.31a2.9,2.9,0,1,1,0,5.8Z"/><path class="cls-1" d="M32.31,77.27H19.13a2.91,2.91,0,0,1,0-5.81H32.31a2.91,2.91,0,1,1,0,5.81Z"/><path class="cls-1" d="M27.48,32h-17a2.91,2.91,0,0,1,0-5.81h17a2.91,2.91,0,0,1,0,5.81Z"/><path class="cls-1" d="M27.48,62.45h-17a2.9,2.9,0,1,1,0-5.8h17a2.9,2.9,0,0,1,0,5.8Z"/><path class="cls-1" d="M24.16,47.64H3.4a2.91,2.91,0,0,1,0-5.81H24.16a2.91,2.91,0,1,1,0,5.81Z"/><path class="cls-1" d="M76.94.5A43.38,43.38,0,0,0,46.06,13.41l-.15.13c-.08.08-.14.17-.21.25a43.35,43.35,0,0,0,0,60.34c.07.08.13.17.21.25l.15.13A43.45,43.45,0,1,0,76.94.5Zm28.2,68.08-3.67-3.66a3,3,0,1,0-4.24,4.24l3.62,3.62a37.32,37.32,0,0,1-20.91,8.51V70.89a3,3,0,1,0-6,0v10.4a37.31,37.31,0,0,1-21.59-9.11l3-3a3,3,0,1,0-4.24-4.24l-3,3A37.31,37.31,0,0,1,39.61,47h12a3,3,0,0,0,0-6h-12A37.25,37.25,0,0,1,48.15,20l3,3a3,3,0,1,0,4.24-4.24l-3-3A37.31,37.31,0,0,1,73.94,6.63V16.84a3,3,0,1,0,6,0V6.63a37.26,37.26,0,0,1,20.91,8.52l-3.62,3.61a3,3,0,0,0,2.12,5.12,3,3,0,0,0,2.12-.88l3.67-3.66A37.33,37.33,0,0,1,114.27,41H103.91a3,3,0,0,0,0,6h10.36A37.33,37.33,0,0,1,105.14,68.58Z"/><path class="cls-1" d="M76.94,28.08a3,3,0,0,0-3,3V41H68.63a3,3,0,0,0,0,6H79.94V31.08A3,3,0,0,0,76.94,28.08Z"/></g></g></svg>