<svg xmlns="http://www.w3.org/2000/svg" viewBox="0 0 113.62 96.25"><defs><style>.icon-user-tuerca{fill:#f7323f;}</style></defs><g id="Capa_2" data-name="Capa 2"><g id="home"><path class="icon-user-tuerca" d="M44.53,0A23.86,23.86,0,1,0,68.39,23.85,23.88,23.88,0,0,0,44.53,0Zm0,43.41A19.56,19.56,0,1,1,64.08,23.85,19.57,19.57,0,0,1,44.53,43.41Z"/><path class="icon-user-tuerca" d="M83.74,53.79A12.56,12.56,0,1,0,96.29,66.35,12.58,12.58,0,0,0,83.74,53.79Zm9.37,12.56A9.38,9.38,0,1,1,83.74,57,9.38,9.38,0,0,1,93.11,66.35Z"/><path class="icon-user-tuerca" d="M110.08,59.57l-3.71-.63A23.28,23.28,0,0,0,105,55.6l2.19-3.06a4.24,4.24,0,0,0-.46-5.5l-3.64-3.64a4.34,4.34,0,0,0-5.49-.46l-3.07,2.19A22.73,22.73,0,0,0,91,43.69L90.4,40a4.26,4.26,0,0,0-4.21-3.56H81.05A4.27,4.27,0,0,0,76.83,40l-.64,3.76a22.62,22.62,0,0,0-3.33,1.41l-3-2.18a4.31,4.31,0,0,0-5.5.45l-3.65,3.65A4.2,4.2,0,0,0,59.44,50H26.26c-.86,0-8.54.58-16.15,7.36C-.28,66.63,0,79.76,0,79.89a2.89,2.89,0,0,0,2.9,2.82H59.62a4.23,4.23,0,0,0,1.24,3.05L64.5,89.4a4.34,4.34,0,0,0,5.48.46l3.11-2.21A24.14,24.14,0,0,0,76.31,89l.62,3.71a4.27,4.27,0,0,0,4.22,3.57H86.3a4.25,4.25,0,0,0,4.21-3.57L91.14,89a24,24,0,0,0,3.35-1.38l3.05,2.18a4.36,4.36,0,0,0,5.5-.46l3.64-3.64a4.24,4.24,0,0,0,.46-5.5L105,77.1a23.66,23.66,0,0,0,1.39-3.34l3.7-.62a4.26,4.26,0,0,0,3.57-4.21V63.8A4.21,4.21,0,0,0,110.08,59.57ZM4.86,78.41a.51.51,0,0,1-.5-.55,27,27,0,0,1,8.58-17.28c5.27-4.7,10.89-6.15,13.39-6.27H61.42l1,1.41a23,23,0,0,0-1.37,3.36l-3.65.61a4.27,4.27,0,0,0-3.57,4.22v5.14a4.26,4.26,0,0,0,3.56,4.21l3.76.65a22.62,22.62,0,0,0,1.41,3.33l-.84,1.17ZM110,68.93a.2.2,0,0,1,0,.11.62.62,0,0,1-.51.51l-5.13.85a1.35,1.35,0,0,0-1.07,1,19.7,19.7,0,0,1-2.16,5.2,1.33,1.33,0,0,0,.06,1.46l3,4.25a.65.65,0,0,1-.07.81l-3.64,3.64a.64.64,0,0,1-.82.07l-4.23-3A1.33,1.33,0,0,0,94,83.74a20.19,20.19,0,0,1-5.2,2.16,1.28,1.28,0,0,0-1,1.06l-.87,5.14a.62.62,0,0,1-.62.52H81.16a.62.62,0,0,1-.62-.53L79.68,87a1.32,1.32,0,0,0-1-1.07,20.87,20.87,0,0,1-5.08-2.09,1.4,1.4,0,0,0-1.45.07l-4.28,3a.64.64,0,0,1-.36.12.6.6,0,0,1-.45-.19l-3.64-3.64a.59.59,0,0,1-.17-.5.62.62,0,0,1,.09-.29l2.86-4,.15-.22a1.35,1.35,0,0,0,.06-1.47,19.81,19.81,0,0,1-2.18-5.19,1.37,1.37,0,0,0-1.07-1L58,69.67a.62.62,0,0,1-.52-.62V63.91a.62.62,0,0,1,.53-.62l5.09-.86a1.34,1.34,0,0,0,1.08-1,19.87,19.87,0,0,1,2.12-5.21,1.33,1.33,0,0,0,0-1.36l-.05-.09-3-4.27a.66.66,0,0,1-.1-.47.58.58,0,0,1,.17-.34l3.64-3.64a.64.64,0,0,1,.82-.07l4.2,3a1.37,1.37,0,0,0,1.48.06,19.41,19.41,0,0,1,5.18-2.18,1.36,1.36,0,0,0,1-1.08l.88-5.16a.63.63,0,0,1,.62-.53h5.14a.64.64,0,0,1,.63.53l.85,5.09a1.36,1.36,0,0,0,1,1.09A19.81,19.81,0,0,1,94,49a1.35,1.35,0,0,0,1.47-.06l4.21-3a.73.73,0,0,1,.36-.12.66.66,0,0,1,.45.19l3.64,3.64a.65.65,0,0,1,.08.8l-3,4.25a1.33,1.33,0,0,0-.06,1.46,19.7,19.7,0,0,1,2.16,5.2,1.32,1.32,0,0,0,1.07,1l5.13.87a.62.62,0,0,1,.53.62Z"/></g></g></svg>