<?xml version="1.0" encoding="UTF-8" standalone="no"?>
<!-- Generator: Adobe Illustrator 21.1.0, SVG Export Plug-In . SVG Version: 6.00 Build 0)  -->

<svg
   xmlns:dc="http://purl.org/dc/elements/1.1/"
   xmlns:cc="http://creativecommons.org/ns#"
   xmlns:rdf="http://www.w3.org/1999/02/22-rdf-syntax-ns#"
   xmlns:svg="http://www.w3.org/2000/svg"
   xmlns="http://www.w3.org/2000/svg"
   xmlns:sodipodi="http://sodipodi.sourceforge.net/DTD/sodipodi-0.dtd"
   xmlns:inkscape="http://www.inkscape.org/namespaces/inkscape"
   version="1.1"
   id="Capa_1"
   x="0px"
   y="0px"
   viewBox="0 0 117.4 187"
   xml:space="preserve"
   sodipodi:docname="iconos part 2-07.svg"
   width="117.4"
   height="187"
   inkscape:version="0.92.3 (2405546, 2018-03-11)"><metadata
   id="metadata152"><rdf:RDF><cc:Work
       rdf:about=""><dc:format>image/svg+xml</dc:format><dc:type
         rdf:resource="http://purl.org/dc/dcmitype/StillImage" /></cc:Work></rdf:RDF></metadata><defs
   id="defs150" /><sodipodi:namedview
   pagecolor="#ffffff"
   bordercolor="#666666"
   borderopacity="1"
   objecttolerance="10"
   gridtolerance="10"
   guidetolerance="10"
   inkscape:pageopacity="0"
   inkscape:pageshadow="2"
   inkscape:window-width="1920"
   inkscape:window-height="1016"
   id="namedview148"
   showgrid="false"
   inkscape:zoom="0.59"
   inkscape:cx="53"
   inkscape:cy="101.2"
   inkscape:window-x="0"
   inkscape:window-y="27"
   inkscape:window-maximized="1"
   inkscape:current-layer="Capa_1" />
<style
   type="text/css"
   id="style139">
	.st0{fill:#070308;}
	.st1{fill:#0D0B0E;}
	.st2{fill:#0B090C;}
	.st3{fill:#09070A;}
	.st4{fill:none;}
	.st5{fill:#0E0C0F;}
	.st6{fill:#040006;}
	.st7{fill:#100E10;}
	.st8{fill:#0A080B;}
</style>
<g
   id="g145"
   transform="translate(-147,-114.2)">
	<path
   class="st0"
   d="m 243.3,166.7 h -37.6 -37.6 c 0,0 7.7,18.3 37.6,29.1 29.8,-10.8 37.6,-29.1 37.6,-29.1 z"
   id="path141"
   inkscape:connector-curvature="0"
   style="fill:#070308" />
	<path
   class="st0"
   d="m 255.2,293.5 h -2.3 v -2.5 -37.6 -0.9 -1.2 0 c -0.3,-11.1 -4.9,-19.9 -13.8,-26.8 -4,-3 -8.1,-5.8 -12.3,-8.5 -3.3,-2.1 -6.9,-3.9 -10.3,-5.9 -1.3,-0.8 -2.4,-1.8 -4.8,-3.5 5.6,-3.2 10,-5.4 14.2,-8.1 5.1,-3.3 10.2,-6.6 14.9,-10.3 7.7,-6.1 11.8,-13.9 12.4,-23.5 0.1,-1.4 0.1,-2.9 0,-4.4 v 0 -29.4 c 0.2,-1.9 -0.1,-3.9 0.1,-5.8 h 6.2 l 1.5,-4.2 2.3,-6.7 h -57.5 -57.5 l 2.3,6.7 1.5,4.2 h 6.2 c 0.2,2 -0.1,3.9 0.1,5.8 v 29.4 0 c -0.1,1.5 -0.1,3 0,4.4 0.6,9.6 4.7,17.4 12.4,23.5 4.7,3.8 9.8,7.1 14.9,10.3 4.2,2.7 8.6,4.9 14.2,8.1 -2.4,1.8 -3.6,2.8 -4.8,3.5 -3.4,2 -6.9,3.8 -10.3,5.9 -4.2,2.7 -8.4,5.5 -12.3,8.5 -8.9,6.9 -13.6,15.8 -13.8,26.8 v 0 1.2 0.9 37.6 2.5 h -2.3 -9.4 l 0.9,1.6 3.3,6 v 0.1 h 7.3 5.5 41.7 41.7 5.5 7.3 v -0.1 l 3.3,-6 0.9,-1.6 z M 177,184.5 c -1,-0.8 -2,-1.7 -3,-2.6 -5.2,-4.7 -8.2,-10.3 -8.6,-17.2 0,0 0,0 0,0 0,-0.2 0,-0.4 0,-0.6 v -7.8 -4.7 -21.8 -4.8 H 179 v 0 h 26.6 26.6 v 0 H 246 v 4.7 21.8 4.7 7.8 c 0,0.2 0,0.4 0,0.6 0,0 0,0 0,0 -0.4,6.9 -3.4,12.5 -8.6,17.2 -1,0.9 -2,1.7 -3,2.6 -5.4,4.4 -19.9,12.8 -28.7,16.8 -8.9,-3.9 -23.3,-12.3 -28.7,-16.7 z m 68.7,84.5 c 0,2.6 -0.3,4.6 -2.3,5.4 -2.2,0.6 -2.8,0.6 -7,-2.3 -6.2,-4.2 -13.8,-3.7 -20.1,0 v 0 c -3,1.5 -3.7,2.5 -5.5,2.5 -0.3,-0.1 -0.6,-0.2 -0.9,-0.2 -1.2,-0.6 -1.8,-2.6 -1.8,-6.1 v -48.6 c 0,-1.3 -1,-2.3 -2.3,-2.3 0,0 -0.1,0 -0.1,0 0,0 -0.1,0 -0.1,0 -1.3,0 -2.3,1 -2.3,2.3 v 48.6 c 0,3.6 -0.6,5.5 -1.8,6.1 -0.3,0.1 -0.6,0.2 -0.9,0.2 -1.7,0 -2.5,-1 -5.5,-2.5 v 0 c -6.3,-3.7 -13.9,-4.3 -20.1,0 -4.2,2.9 -4.8,2.9 -7,2.3 -1.9,-0.8 -2.2,-2.9 -2.3,-5.4 0,-6.1 -0.1,-12 -0.1,-17.8 -0.1,-7.3 2.7,-13.3 7.9,-18.3 1.9,-1.8 3.9,-3.6 6,-5.1 8.3,-6.2 17.6,-10.7 26.2,-15.7 8.6,5 17.9,9.5 26.2,15.7 2.1,1.6 4.1,3.3 6,5.1 5.2,4.9 8,11 7.9,18.3 -0.1,5.8 -0.1,11.7 -0.1,17.8 z"
   id="path143"
   inkscape:connector-curvature="0"
   style="fill:#070308" />
</g>
</svg>