<svg xmlns="http://www.w3.org/2000/svg" viewBox="0 0 67.76 90.36"><defs><style>.cls-1{fill:#f7323f;}</style></defs><title>Recurso 37</title><g id="Capa_2" data-name="Capa 2"><g id="home"><path class="cls-1" d="M52.6,29H15.16a2.12,2.12,0,1,0,0,4.23H52.6a2.12,2.12,0,1,0,0-4.23Z"/><path class="cls-1" d="M52.6,41.71H15.16a2.12,2.12,0,0,0,0,4.24H52.6a2.12,2.12,0,0,0,0-4.24Z"/><path class="cls-1" d="M67.75,18.26a2.09,2.09,0,0,0-.61-1.44L51,.63A2.12,2.12,0,0,0,49.45,0h-45A4.46,4.46,0,0,0,0,4.46V57.34A3.17,3.17,0,0,0,1.5,60l7.3,4.53a7.34,7.34,0,0,0,7.81,0l5-3.11a3.16,3.16,0,0,1,3.35,0l5,3.11a7.37,7.37,0,0,0,7.81,0l5-3.11a3.16,3.16,0,0,1,3.35,0l5,3.11a7.34,7.34,0,0,0,7.81,0L66.26,60a3.17,3.17,0,0,0,1.5-2.61v-39A.07.07,0,0,0,67.75,18.26Zm-16.19-11h0l9,9H51.79a.23.23,0,0,1-.23-.23V7.22Zm12,49.45-6.8,4.22a3.16,3.16,0,0,1-3.35,0l-5-3.11a7.34,7.34,0,0,0-7.81,0l-5,3.11a3.15,3.15,0,0,1-3.34,0l-5-3.11a7.34,7.34,0,0,0-7.81,0l-5,3.11a3.16,3.16,0,0,1-3.35,0l-6.8-4.22V4.46a.23.23,0,0,1,.23-.23H47.33V16a4.46,4.46,0,0,0,4.46,4.46H63.53Z"/><path class="cls-1" d="M67.76,69.88v0h0a3.17,3.17,0,0,0-4.85-2.7L56.66,71a3,3,0,0,1-3.21,0L48.3,67.84a7.22,7.22,0,0,0-7.67,0L35.48,71a3,3,0,0,1-3.2,0l-5.16-3.19a7.2,7.2,0,0,0-7.66,0L14.31,71a3,3,0,0,1-3.21,0L4.85,67.15A3.17,3.17,0,0,0,0,69.85H0v16a4.46,4.46,0,0,0,4.46,4.45H63.3a4.46,4.46,0,0,0,4.46-4.45ZM63.3,86.13H4.46a.22.22,0,0,1-.23-.22V71.75l4.64,2.88a7.22,7.22,0,0,0,7.67,0l5.15-3.2a3,3,0,0,1,3.2,0l5.16,3.2a7.22,7.22,0,0,0,7.66,0l5.16-3.2a3,3,0,0,1,3.2,0l5.15,3.2a7.22,7.22,0,0,0,7.67,0l4.64-2.88V85.91A.22.22,0,0,1,63.3,86.13Z"/></g></g></svg>