<?xml version="1.0" encoding="utf-8"?>
<!-- Generator: Adobe Illustrator 23.0.0, SVG Export Plug-In . SVG Version: 6.00 Build 0)  -->
<svg version="1.1" id="Capa_1" xmlns="http://www.w3.org/2000/svg" xmlns:xlink="http://www.w3.org/1999/xlink" x="0px" y="0px"
	 viewBox="0 0 100 100" style="enable-background:new 0 0 100 100;" xml:space="preserve">
<style type="text/css">
	.st0{fill:#0A060C;}
</style>
<g>
	<g>
		<path class="st0" d="M88,50c0-5.9,3.6-10.5,9-13.7c-1-3.3-2.3-6.4-3.9-9.4C87,28.6,82.1,26.2,78,22c-4.1-4.1-5.4-9.1-3.8-15.2
			C71.2,5.3,68.1,4,64.8,3c-3.2,5.4-8.9,9-14.8,9c-5.9,0-11.6-3.6-14.8-9c-3.3,1-6.4,2.3-9.4,3.9c1.6,6.1,0.3,11-3.8,15.2
			C17.9,26.2,13,28.6,6.9,27C5.3,29.9,4,33.1,3,36.3c5.4,3.2,9,7.8,9,13.7S8.4,61.6,3,64.8c1,3.3,2.3,6.4,3.9,9.4
			c6.1-1.6,11-0.3,15.2,3.8c4.1,4.1,5.4,9.1,3.8,15.2c2.9,1.6,6.1,2.9,9.4,3.9c3.2-5.4,8.9-9,14.8-9c5.9,0,11.6,3.6,14.8,9
			c3.3-1,6.4-2.3,9.4-3.9C72.5,87,73.8,82.1,78,78c4.1-4.1,9.1-6.5,15.2-4.9c1.6-3,2.9-6.1,3.9-9.4C91.6,60.5,88,55.9,88,50z
			 M50,70.4c-11.3,0-20.4-9.2-20.4-20.4S38.7,29.6,50,29.6S70.4,38.7,70.4,50S61.3,70.4,50,70.4z"/>
	</g>
</g>
</svg>
