<svg xmlns="http://www.w3.org/2000/svg" xmlns:xlink="http://www.w3.org/1999/xlink" width="40" height="70"><defs><path id="oscar_leaf_white-a" d="M0 .427h39.709v68.71H0z"/></defs><g fill="none" fill-rule="evenodd"><mask id="oscar_leaf_white-b" fill="#fff"><use xlink:href="#oscar_leaf_white-a"/></mask><path fill="#FFF" fill-rule="nonzero" d="M31.658 65.15c-.474 2.37-2.18 3.697-5.114 3.987a48.8 48.8 0 0 1-2.846-.087l-1.156-.26-.044-.088.623-1.039a20.073 20.073 0 0 1 2.044-1.907c1.249-1.011 2.477-1.516 3.691-1.516a4.61 4.61 0 0 1 1.423.216c.463.157.924.386 1.379.695zM9.16 58.825l1.067-.693c.903-.52 1.779-.867 2.622-1.039a8.277 8.277 0 0 1 2.135-.345c1.766.005 3.175.726 4.223 2.165-1.098 1.406-2.491 2.114-4.18 2.123-.7-.01-1.458-.14-2.265-.39-.785-.232-1.632-.605-2.535-1.126l-1.067-.607v-.088zm-.4-7.45l.755-.044c2.395-.005 4.025 1.05 4.89 3.162-.982.91-2.064 1.373-3.244 1.388a5.75 5.75 0 0 1-1.556-.26 8.769 8.769 0 0 1-1.692-.695 9.52 9.52 0 0 1-2.221-1.645l-1.067-.867v-.086l1.244-.52a18.23 18.23 0 0 1 2.89-.433zm-7.07-5.806l.044-.086 1.246-.26a12.9 12.9 0 0 1 1.467-.087c.474 0 .932.029 1.377.088 2.927.352 4.631 1.666 5.114 3.942-.973.585-1.936.875-2.89.865-1.26.004-2.521-.474-3.78-1.428a57.146 57.146 0 0 1-1.865-2.08l-.713-.954zm28.1 10.572c.71.632 1.272 1.296 1.69 1.991 1.435 2.282 1.375 4.275-.178 5.98-2.315-.813-3.41-2.532-3.29-5.155 0-.808.147-1.646.444-2.513l.447-1.169h.086l.802.866zm-4.98 6.498c-.842 1.953-2.428 2.936-4.757 2.946l-.979-.087a8.02 8.02 0 0 1-1.422-.216 9.528 9.528 0 0 1-1.467-.477l-1.111-.348-.047-.086.89-.95a39.317 39.317 0 0 1 2.401-1.562c1.065-.484 2.058-.73 2.98-.737 1.316.005 2.488.51 3.512 1.517zm-.445-9.79l.713.865c.592.766 1.008 1.56 1.245 2.383.898 2.499.424 4.42-1.424 5.762-2.02-1.166-2.731-3.029-2.133-5.589.176-.767.503-1.56.979-2.382l.532-1.04h.088zm-4.533-2.427c.293-.35.589-.639.888-.866l.09.043.355 1.125c.213.402.391.806.532 1.216.127.401.215.808.268 1.21.424 2.62-.405 4.453-2.49 5.503h-.09c-1.73-1.587-2.027-3.58-.89-5.978.358-.696.803-1.447 1.337-2.253zm-1.246-.996c-.125 2.62-1.324 4.25-3.602 4.895h-.044c-1.436-1.764-1.376-3.727.178-5.892.39-.548.82-1.04 1.289-1.474a8.178 8.178 0 0 1 1.467-1.124l.089.042.266 1.04a9.5 9.5 0 0 1 .357 2.513zm-2.624-7.843l.046.044.088 1.126c0 .928-.06 1.764-.179 2.514-.6 2.506-2.037 3.877-4.311 4.115h-.047c-1.077-1.995-.692-3.904 1.158-5.718a10.15 10.15 0 0 1 1.556-1.258 8.283 8.283 0 0 1 1.689-.823zM14.85 36.86l-.71 3.725c-.956 2.24-2.483 3.368-4.582 3.381l-.443-.043c-.754-2.243-.029-4.093 2.18-5.547a12.544 12.544 0 0 1 1.688-.909 12.543 12.543 0 0 1 1.823-.649l.044.042zM.623 39.417l-.534-1.04.044-.087H1.38c1.068.056 2.016.23 2.846.52 2.807.814 4.244 2.447 4.313 4.895-.67.265-1.307.395-1.912.39-1.594.001-3.06-.75-4.402-2.253a10.752 10.752 0 0 1-1.601-2.425zm2.046-7.67c.49.168.963.355 1.42.564 2.503 1.222 3.539 3.03 3.113 5.416-.431.113-.83.17-1.2.174-1.964 0-3.55-.997-4.759-2.99a17.158 17.158 0 0 1-.977-2.556l-.267-1.3.047-.044 1.154.347c.502.106.991.238 1.469.39zm-1.512-7.883l.086-.043 1.247.519c.95.462 1.78.924 2.49 1.388 2.265 1.684 2.947 3.693 2.045 6.02h-.043c-2.52 0-4.253-1.299-5.203-3.9a9.93 9.93 0 0 1-.357-1.341 12.055 12.055 0 0 1-.179-1.43l-.086-1.213zm13.515 8.23a9.082 9.082 0 0 1-.533 1.735 10.727 10.727 0 0 1-.89 1.69c-1.052 1.795-2.432 2.69-4.134 2.685a5.407 5.407 0 0 1-1.333-.173c-.278-2.25.775-3.924 3.156-5.025a10.75 10.75 0 0 1 1.78-.651 11.431 11.431 0 0 1 1.91-.304l.044.042zm-1.29-4.894c.565-.09 1.142-.132 1.736-.13l.488.042.045.088c-.235.575-.53 1.136-.888 1.688a12.498 12.498 0 0 1-1.245 1.605c-1.198 1.324-2.532 1.988-4.003 1.992a5.585 5.585 0 0 1-1.824-.348c.157-2.367 1.52-3.87 4.092-4.504a9.745 9.745 0 0 1 1.599-.433zm1.558-1.82c-1.19.95-2.36 1.427-3.513 1.43-.826-.003-1.64-.248-2.446-.737.414-2.311 1.94-3.61 4.58-3.898l1.023-.044 2.891.216.043.087a10.343 10.343 0 0 1-1.111 1.56 11.81 11.81 0 0 1-1.467 1.386zM7.293 19.4c1.848 2.05 2.114 4.16.798 6.328-2.488-.405-3.912-2.036-4.268-4.897a12.3 12.3 0 0 1-.132-1.3c-.009-.457.007-.918.044-1.386l.267-1.213.087-.044.981.695a11.14 11.14 0 0 1 2.223 1.818zm1.066-8.923l.98.867a12.318 12.318 0 0 1 1.686 2.251c1.376 2.455 1.285 4.565-.266 6.327-2.432-.93-3.56-2.762-3.379-5.502.031-.405.09-.837.179-1.3.088-.466.208-.957.354-1.473l.357-1.126.09-.044zm4.758-3.813c.289-.603.63-1.18 1.022-1.731h.09l.71.952c.593.879 1.04 1.732 1.335 2.555.899 2.675.337 4.74-1.69 6.195-2.138-1.338-2.85-3.375-2.133-6.107.168-.64.392-1.262.666-1.864zm5.957 12.867a18.2 18.2 0 0 1-1.556 1.17c-1.074.518-2.082.779-3.023.779-1.17 0-2.235-.405-3.2-1.212.754-1.936 2.266-2.9 4.535-2.902l.755.042c.686.022 1.354.094 2.001.217.646.137 1.268.324 1.868.563v.086c-.421.432-.882.854-1.38 1.257zm5.38-4.896c-.502.412-1.034.773-1.6 1.085a11.54 11.54 0 0 1-1.825.737c-.828.285-1.6.428-2.31.431-1.49.004-2.72-.603-3.692-1.82.907-1.55 2.24-2.331 4.003-2.338a7.916 7.916 0 0 1 1.822.26c.667.172 1.305.39 1.914.65.592.26 1.157.564 1.688.91v.085zm1.69-5.284a10.06 10.06 0 0 1 1.735.823 9.846 9.846 0 0 1 1.556 1.17v.088a10.74 10.74 0 0 1-1.78.777 9.742 9.742 0 0 1-1.822.435 8.458 8.458 0 0 1-1.422.128c-1.992.009-3.43-.814-4.313-2.469.988-1.069 2.113-1.603 3.379-1.603.414-.01.843.032 1.29.131a7.74 7.74 0 0 1 1.377.52zM21.52.427h.088c.326.588.592 1.196.802 1.818.208.608.357 1.23.445 1.863.306 2.79-.673 4.712-2.936 5.762h-.087c-1.792-1.701-2.029-3.782-.711-6.237a12.693 12.693 0 0 1 2.4-3.206zm11.16 2.339l.046.086c-.288.575-.63 1.136-1.023 1.69-.41.55-.87 1.084-1.38 1.603-1.38 1.35-2.787 2.029-4.223 2.037-.75-.012-1.505-.199-2.268-.565.236-2.423 1.76-3.984 4.581-4.68.89-.19 1.778-.29 2.668-.301.53.01 1.065.054 1.599.13z" mask="url(#oscar_leaf_white-b)"/><path fill="#FFF" fill-rule="nonzero" d="M38.906 68.494a.782.782 0 0 1-.294-.056l-6.048-2.337a.785.785 0 0 1-.453-1.022.81.81 0 0 1 1.04-.445l6.049 2.339c.412.16.615.617.453 1.022a.804.804 0 0 1-.747.499"/></g></svg>