<svg xmlns="http://www.w3.org/2000/svg" xmlns:xlink="http://www.w3.org/1999/xlink" width="287.635" height="243.265" viewBox="0 0 287.635 243.265">
  <defs>
    <filter id="Trazado_260" x="33.562" y="33.562" width="71.472" height="75.169" filterUnits="userSpaceOnUse">
      <feOffset dy="3" input="SourceAlpha"/>
      <feGaussianBlur stdDeviation="3" result="blur"/>
      <feFlood flood-opacity="0.161"/>
      <feComposite operator="in" in2="blur"/>
      <feComposite in="SourceGraphic"/>
    </filter>
    <filter id="Trazado_261" x="182.6" y="134.533" width="71.472" height="75.169" filterUnits="userSpaceOnUse">
      <feOffset dy="3" input="SourceAlpha"/>
      <feGaussianBlur stdDeviation="3" result="blur-2"/>
      <feFlood flood-opacity="0.161"/>
      <feComposite operator="in" in2="blur-2"/>
      <feComposite in="SourceGraphic"/>
    </filter>
    <filter id="Trazado_262" x="0" y="0" width="287.635" height="243.265" filterUnits="userSpaceOnUse">
      <feOffset dy="3" input="SourceAlpha"/>
      <feGaussianBlur stdDeviation="3" result="blur-3"/>
      <feFlood flood-opacity="0.161"/>
      <feComposite operator="in" in2="blur-3"/>
      <feComposite in="SourceGraphic"/>
    </filter>
  </defs>
  <g id="Grupo_10381" data-name="Grupo 10381" transform="translate(-578.182 -315.735)">
    <g transform="matrix(1, 0, 0, 1, 578.18, 315.74)" filter="url(#Trazado_260)">
      <path id="Trazado_260-2" data-name="Trazado 260" d="M3889.186,97.268V72.239A28.475,28.475,0,0,1,3917.629,43.8h21.332a3.7,3.7,0,0,1,0,7.4h-21.332a21.073,21.073,0,0,0-21.048,21.047V97.268a3.7,3.7,0,1,1-7.4,0Z" transform="translate(-3846.62 -4.23)" fill="#ededed"/>
    </g>
    <g transform="matrix(1, 0, 0, 1, 578.18, 315.74)" filter="url(#Trazado_261)">
      <path id="Trazado_261-2" data-name="Trazado 261" d="M4204.658,224.994v25.029a28.474,28.474,0,0,1-28.442,28.443h-21.332a3.7,3.7,0,1,1,0-7.4h21.332a21.071,21.071,0,0,0,21.047-21.047V224.994a3.7,3.7,0,0,1,7.4,0Z" transform="translate(-3959.59 -80.76)" fill="#ededed"/>
    </g>
    <g transform="matrix(1, 0, 0, 1, 578.18, 315.74)" filter="url(#Trazado_262)">
      <path id="Trazado_262-2" data-name="Trazado 262" d="M4071.38,210.061h-212.75a28.474,28.474,0,0,1-28.442-28.443V13.239A28.474,28.474,0,0,1,3858.629-15.2h212.75a28.475,28.475,0,0,1,28.442,28.443v168.38A28.475,28.475,0,0,1,4071.38,210.061ZM3858.629-7.809a21.071,21.071,0,0,0-21.047,21.047v168.38a21.071,21.071,0,0,0,21.047,21.047h212.75a21.071,21.071,0,0,0,21.047-21.047V13.239A21.071,21.071,0,0,0,4071.38-7.809Z" transform="translate(-3821.19 21.2)" fill="#ededed"/>
    </g>
  </g>
</svg>
