<svg data-name="avatar icon" xmlns="http://www.w3.org/2000/svg" width="30" height="30"><circle data-name="Elipse 212" cx="13" cy="13" r="13" transform="translate(2.276 2)" fill="#b7bec1"/><path data-name="Icon awesome-user-circle" d="M15 0a15 15 0 1015 15A15 15 0 0015 0zm0 5.806a5.323 5.323 0 11-5.323 5.323A5.323 5.323 0 0115 5.806zm0 20.806a11.59 11.59 0 01-8.861-4.125A6.744 6.744 0 0112.1 18.87a1.48 1.48 0 01.429.067 8.008 8.008 0 002.471.417 7.978 7.978 0 002.474-.417 1.48 1.48 0 01.429-.067 6.744 6.744 0 015.958 3.617A11.59 11.59 0 0115 26.612z" fill="#f2f2f2"/></svg>