<svg xmlns="http://www.w3.org/2000/svg" width="13.998" height="13.998"><path data-name="Icon metro-filter" d="M7 0C3.135 0 0 .979 0 2.187v1.312l5.25 5.25v4.374c0 .483.783.875 1.75.875s1.75-.392 1.75-.875V8.749L13.999 3.5V2.187C13.999.979 10.865 0 7 0zM1.291 1.9a5.953 5.953 0 011.33-.512A17.254 17.254 0 017 .872a17.254 17.254 0 014.379.51 5.954 5.954 0 011.33.512 1.522 1.522 0 01.387.289 1.523 1.523 0 01-.387.289 5.954 5.954 0 01-1.33.512A17.254 17.254 0 017 3.494a17.254 17.254 0 01-4.379-.51 5.953 5.953 0 01-1.33-.512 1.523 1.523 0 01-.387-.289 1.523 1.523 0 01.387-.289z" fill="#005198"/></svg>